<?xml version="1.0" encoding="UTF-8" standalone="no"?>
<svg
   version="1.1"
   width="101.6mm"
   height="128.5mm"
   viewBox="0 0 101.6 128.5"
   id="svg77"
   sodipodi:docname="AcidGen.svg"
   inkscape:version="1.4.3 (0d15f75, 2025-12-25)"
   xmlns:inkscape="http://www.inkscape.org/namespaces/inkscape"
   xmlns:sodipodi="http://sodipodi.sourceforge.net/DTD/sodipodi-0.dtd"
   xmlns="http://www.w3.org/2000/svg"
   xmlns:svg="http://www.w3.org/2000/svg">
  <defs
     id="defs77" />
  <sodipodi:namedview
     id="namedview77"
     pagecolor="#ffffff"
     bordercolor="#000000"
     borderopacity="0.25"
     inkscape:showpageshadow="2"
     inkscape:pageopacity="0.0"
     inkscape:pagecheckerboard="0"
     inkscape:deskcolor="#d1d1d1"
     inkscape:document-units="mm"
     inkscape:zoom="2.6090498"
     inkscape:cx="140.66424"
     inkscape:cy="96.586888"
     inkscape:window-width="1787"
     inkscape:window-height="1147"
     inkscape:window-x="0"
     inkscape:window-y="44"
     inkscape:window-maximized="0"
     inkscape:current-layer="g34" />
  <!-- 20HP panel: 101.6mm x 128.5mm -->
  <!-- ============================================================ -->
  <!-- DESIGN LAYER -->
  <!-- ============================================================ -->
  <g
     inkscape:label="Design"
     inkscape:groupmode="layer"
     style="display:inline"
     id="g34">
    <!-- Main panel background -->
    <rect
       x="0"
       y="0"
       width="101.6"
       height="128.5"
       fill="#e6e6e6"
       id="rect1" />
    <!-- Panel border -->
    <!-- Title bar area -->
    <!-- Title chevrons (left) -->
    <!-- Title chevrons (right) -->
    <!-- Module title -->
    <!-- Knob section grouping rect (covers full knob area y=11 to y=87) -->
    <rect
       x="1.5"
       y="11"
       width="33"
       height="76"
       rx="2"
       ry="2"
       fill="#dcdcdc"
       id="rect5" />
    <!-- Left column labels (4mm above each knob center) -->
    <!-- Right column labels -->
    <!-- Knob outline circles (all Rogan1PWhite ~4mm radius) -->
    <!-- Left column: y = 23, 41.5, 60, 78.5 -->
    <circle
       cx="10"
       cy="23"
       r="4"
       fill="none"
       stroke="#bbbbbb"
       stroke-width="0.3"
       id="circle13" />
    <circle
       cx="10"
       cy="41.5"
       r="4"
       fill="none"
       stroke="#bbbbbb"
       stroke-width="0.3"
       id="circle14" />
    <circle
       cx="10"
       cy="60"
       r="4"
       fill="none"
       stroke="#bbbbbb"
       stroke-width="0.3"
       id="circle15" />
    <circle
       cx="10"
       cy="78.5"
       r="4"
       fill="none"
       stroke="#bbbbbb"
       stroke-width="0.3"
       id="circle16" />
    <!-- Right column: y = 23, 41.5, 60, 78.5 -->
    <circle
       cx="26"
       cy="23"
       r="4"
       fill="none"
       stroke="#bbbbbb"
       stroke-width="0.3"
       id="circle17" />
    <circle
       cx="26"
       cy="41.5"
       r="4"
       fill="none"
       stroke="#bbbbbb"
       stroke-width="0.3"
       id="circle18" />
    <circle
       cx="26"
       cy="60"
       r="4"
       fill="none"
       stroke="#bbbbbb"
       stroke-width="0.3"
       id="circle19" />
    <circle
       cx="26"
       cy="78.5"
       r="4"
       fill="none"
       stroke="#bbbbbb"
       stroke-width="0.3"
       id="circle20" />
    <!-- Generate button label (centered on display area) -->
    <!-- Vertical divider between knobs and display -->
    <line
       x1="36"
       y1="11"
       x2="36"
       y2="87"
       stroke="#bbbbbb"
       stroke-width="0.3"
       id="line20" />
    <!-- Yellow accent line (full width divider above CV section) -->
    <!-- CV input area (dark band) -->
    <rect
       x="0"
       y="88.680252"
       width="101.6"
       height="21"
       fill="#222222"
       id="rect21" />
    <!-- CV input labels -->
    <!-- Output labels -->
    <!-- CV jack outline circles -->
    <circle
       cx="10"
       cy="100"
       r="4.2"
       fill="none"
       stroke="#444444"
       stroke-width="0.3"
       id="circle27" />
    <circle
       cx="22"
       cy="100"
       r="4.2"
       fill="none"
       stroke="#444444"
       stroke-width="0.3"
       id="circle28" />
    <circle
       cx="34"
       cy="100"
       r="4.2"
       fill="none"
       stroke="#444444"
       stroke-width="0.3"
       id="circle29" />
    <!-- Output jack outline circles -->
    <circle
       cx="52"
       cy="100"
       r="4.2"
       fill="none"
       stroke="#444444"
       stroke-width="0.3"
       id="circle30" />
    <circle
       cx="64"
       cy="100"
       r="4.2"
       fill="none"
       stroke="#444444"
       stroke-width="0.3"
       id="circle31" />
    <circle
       cx="76"
       cy="100"
       r="4.2"
       fill="none"
       stroke="#444444"
       stroke-width="0.3"
       id="circle32" />
    <circle
       cx="88"
       cy="100"
       r="4.2"
       fill="none"
       stroke="#444444"
       stroke-width="0.3"
       id="circle33" />
    <!-- Output area (darkest band) -->
    <rect
       x="0"
       y="107.5"
       width="101.6"
       height="21"
       fill="#1a1a1a"
       id="rect33"
       style="stroke-width:1.06543"
       sodipodi:insensitive="true" />
    <!-- Step LED indicator bar -->
    <rect
       x="4.5362558"
       y="108.58135"
       width="93.392036"
       height="12.94265"
       rx="1.6102076"
       ry="1.8489499"
       fill="#e2e3db"
       id="rect34"
       style="stroke-width:1.72545" />
    <rect
       x="44.224998"
       y="90.746201"
       width="53.703293"
       height="15.003986"
       rx="1.8282913"
       ry="1.9725569"
       fill="#e2e3db"
       id="rect34-7"
       style="display:inline;stroke-width:1.40877" />
    <!-- Brand name -->
    <g
       inkscape:groupmode="layer"
       id="layer4"
       inkscape:label="Text Old"
       style="display:none">
      <text
         x="10"
         y="94"
         text-anchor="middle"
         font-family="'JetBrains Mono', monospace"
         font-size="1.41px"
         fill="#b3b3b3"
         font-weight="600"
         id="text21"
         style="display:inline">CLK</text>
      <text
         x="22"
         y="94"
         text-anchor="middle"
         font-family="'JetBrains Mono', monospace"
         font-size="1.41px"
         fill="#b3b3b3"
         font-weight="600"
         id="text22"
         style="display:inline">RST</text>
      <text
         x="34"
         y="94"
         text-anchor="middle"
         font-family="'JetBrains Mono', monospace"
         font-size="1.41px"
         fill="#b3b3b3"
         font-weight="600"
         id="text23"
         style="display:inline">GEN</text>
      <text
         x="52"
         y="94"
         text-anchor="middle"
         font-family="'JetBrains Mono', monospace"
         font-size="1.76px"
         fill="#b3b3b3"
         font-weight="600"
         id="text24"
         style="display:inline">V/OCT</text>
      <text
         x="64"
         y="94"
         text-anchor="middle"
         font-family="'JetBrains Mono', monospace"
         font-size="1.76px"
         fill="#b3b3b3"
         font-weight="600"
         id="text25"
         style="display:inline">GATE</text>
      <text
         x="76"
         y="94"
         text-anchor="middle"
         font-family="'JetBrains Mono', monospace"
         font-size="1.76px"
         fill="#b3b3b3"
         font-weight="600"
         id="text26"
         style="display:inline">ACC</text>
      <text
         x="88"
         y="94"
         text-anchor="middle"
         font-family="'JetBrains Mono', monospace"
         font-size="1.76px"
         fill="#b3b3b3"
         font-weight="600"
         id="text27"
         style="display:inline">SLD</text>
      <text
         x="10"
         y="19"
         text-anchor="middle"
         font-family="'JetBrains Mono', monospace"
         font-size="2.12px"
         fill="#1a1a1a"
         font-weight="700"
         id="text6"
         style="display:inline">DENSITY</text>
      <text
         x="10"
         y="37.5"
         text-anchor="middle"
         font-family="'JetBrains Mono', monospace"
         font-size="2.12px"
         fill="#1a1a1a"
         font-weight="700"
         id="text7"
         style="display:inline">SPREAD</text>
      <text
         x="10"
         y="56"
         text-anchor="middle"
         font-family="'JetBrains Mono', monospace"
         font-size="2.12px"
         fill="#1a1a1a"
         font-weight="700"
         id="text8"
         style="display:inline">ACC</text>
      <text
         x="10"
         y="74.5"
         text-anchor="middle"
         font-family="'JetBrains Mono', monospace"
         font-size="2.12px"
         fill="#1a1a1a"
         font-weight="700"
         id="text9"
         style="display:inline">SLD</text>
      <text
         x="26"
         y="19"
         text-anchor="middle"
         font-family="'JetBrains Mono', monospace"
         font-size="2.12px"
         fill="#1a1a1a"
         font-weight="700"
         id="text10"
         style="display:inline">LENGTH</text>
      <text
         x="26"
         y="37.5"
         text-anchor="middle"
         font-family="'JetBrains Mono', monospace"
         font-size="2.12px"
         fill="#1a1a1a"
         font-weight="700"
         id="text11"
         style="display:inline">SCALE</text>
      <text
         x="26"
         y="56"
         text-anchor="middle"
         font-family="'JetBrains Mono', monospace"
         font-size="2.12px"
         fill="#1a1a1a"
         font-weight="700"
         id="text12"
         style="display:inline">ROOT</text>
      <text
         x="26"
         y="74.5"
         text-anchor="middle"
         font-family="'JetBrains Mono', monospace"
         font-size="2.12px"
         fill="#1a1a1a"
         font-weight="700"
         id="text13"
         style="display:inline">OCT</text>
      <text
         x="69"
         y="66"
         text-anchor="middle"
         font-family="'JetBrains Mono', monospace"
         font-size="2.12px"
         fill="#1a1a1a"
         font-weight="700"
         id="text20"
         style="display:inline">GEN</text>
    </g>
    <g
       id="layer3"
       transform="translate(20.319715,-0.12883479)" />
    <g
       inkscape:groupmode="layer"
       id="layer1-0"
       inkscape:label="acid smiley"
       transform="matrix(0.005095,0,0,0.005095,11.553749,106.11934)"
       style="display:none">
      <path
         id="path3"
         d="m 10522.6,4306.4 c -30.6,-199.5 -108.4,-395.8 -250,-523.7 -46.8,-42.2 -101.7,-72.7 -160.6,-91.9 -1125.5,-368.1 -643.97,2082.4 -109.5,2436.3 349,-426.1 604.6,-1267.6 520.1,-1820.7"
         style="fill:#f7e71d;fill-opacity:1;fill-rule:nonzero;stroke:none"
         transform="matrix(0.13333333,0,0,-0.13333333,0,4000)" />
      <path
         id="path4"
         d="m 22390.1,16499.1 c 0,-1300 -346.2,-2589.8 -1002.4,-3712.6 -391,-668.9 -966.3,-1083.9 -1281.6,-1802.3 -449.2,-1023.5 -651.6,-2052.8 -146.6,-3089.2 312.2,-640.6 595.8,-1618.5 -70.7,-2146.4 -665.2,-526.7 -1470,15 -1539.8,775.9 -60.2,656.8 330.4,1611.5 -97.5,2191.7 -344.3,466.7 -423.2,-141.1 -622,-419.3 -233.3,-318.9 -571.3,-161.5 -825.7,-448.6 -668.1,-754 -34.7,-3649.6 255,-4426 147,-393.7 296.4,-810.4 225.4,-1224.6 -110.8,-646.8 -804.2,-1114.2 -1454.6,-1028 -650.5,86.2 -1183.3,669.6 -1268.7,1320.1 -58.5,444.8 66.2,891.8 204.9,1318.5 138.6,426.6 294.2,857.6 300,1306.2 4.4,343.4 -103.3,877.9 -440.9,1055.5 -201.6,106 -464.5,-86 -640,100.4 -256.1,272.2 32.8,983.5 70.6,1299.4 34.5,288.2 40.3,641.3 -204.7,796.8 -343.8,218.3 -785.9,-65.3 -982,-358.3 -269.3,-402.3 -112.4,-711.9 -55.6,-1127.6 71.4,-523.1 -328,-977.8 -865.9,-936.3 -635.8,49.1 -678,643.1 -611.8,1158.8 80.5,627.4 367,2876.9 -784.6,2819.1 -416.2,-21.2 -590.27,-695.2 -1093.39,-364.8 -251.02,164.9 -325,493.5 -378.12,789.2 -189.96,1057.3 -287.92,2122 -755.41,3080 -459.42,941.5 -669.23,2029.8 -669.24,3072.4 0,4069.1 3298.66,7367.7 7367.66,7367.7 4069.1,0 7367.7,-3298.6 7367.7,-7367.7"
         style="fill:#f7e71d;fill-opacity:1;fill-rule:nonzero;stroke:none"
         transform="matrix(0.13333333,0,0,-0.13333333,0,4000)" />
      <path
         id="path5"
         d="m 20657.4,13788.1 c -153,-261.7 -340.8,-484.2 -539.7,-719.8 -276.2,-327.1 -561.7,-665.3 -762.9,-1123.7 -268.7,-612.1 -420.3,-1157.3 -463.4,-1666.7 -53.2,-627.3 52.7,-1202.5 323.5,-1758.4 178.7,-366.6 540.2,-1261.9 40.5,-1657.6 -162.2,-128.4 -329.5,-157.1 -497.2,-85.2 -213.1,91.2 -372.2,326 -395.9,584.1 -17,185.4 13.7,425.8 46.2,680.4 72,565 153.7,1205.3 -220.1,1712.2 -178.5,241.9 -379.5,353.1 -597.5,330.6 -212.4,-21.9 -349.6,-166.1 -427.3,-283.3 -57.1,-86.1 -101.1,-182 -143.5,-274.7 -32.8,-71.5 -69.9,-152.5 -99.8,-195.1 -30.6,-41.1 -55.7,-52 -194,-86.5 -160.2,-39.8 -402.2,-100.1 -606.9,-331.1 -217.1,-245.1 -342.2,-616.4 -382.2,-1135 -29.6,-384.6 -11.9,-849.9 52.8,-1383.1 110.9,-913.4 345,-1873.4 509.1,-2313 122.1,-327.2 260.5,-698.1 205.9,-1017.3 -71.7,-418.4 -561.6,-758.1 -1007.9,-698.9 -454.5,60.2 -860.7,488.8 -924.6,975.7 -48.5,369.2 66.6,767 188.7,1142.7 12.5,38.4 25.1,76.9 37.8,115.5 135.6,413 275.8,840.1 281.8,1309.2 6.3,490.4 -161.4,1155.2 -654.7,1414.6 -120.9,63.6 -240.5,80.2 -344.6,80.2 -66.1,0 -126,-6.7 -175.9,-12.3 -3.2,-0.3 -6.6,-0.7 -10.2,-1.1 -1.2,33.1 0.2,80.8 8.7,147.7 16.9,133.6 54.8,287.6 88.3,423.4 32.1,130.6 62.5,253.8 75.3,360.4 25.7,215.1 104.2,869.8 -387.5,1182 -271.1,172.2 -599.7,186.3 -925.1,39.6 -236.9,-106.8 -456.9,-293.8 -603.7,-513.1 -303.9,-453.9 -224.4,-853 -160.6,-1173.6 15.7,-79 30.6,-153.6 41.1,-230.6 18.7,-136.8 -21,-268.6 -108.9,-361.8 -83.3,-88.4 -200.4,-131.6 -329.9,-121.6 -135.3,10.5 -171.8,55.4 -185.6,72.3 -36.9,45.3 -116.6,198.1 -60.3,636.8 32.9,256.6 101.5,790.6 93.4,1341.7 -10.9,754.4 -159.6,1276 -454.5,1594.6 -217.1,234.7 -507.7,349.9 -840.6,333.2 -306.9,-15.7 -514.23,-199.5 -665.62,-333.7 -45.61,-40.4 -112.22,-99.5 -147.71,-118.5 -8.16,3.4 -21.41,10.1 -40.06,22.3 -124.26,81.6 -176.13,370.4 -204.01,525.5 -36.28,202 -69.93,409 -102.46,609.1 -139.89,860.6 -284.54,1750.5 -687.16,2575.6 -411.31,842.9 -628.72,1844.7 -628.72,2897.1 0,3842 3125.64,6967.6 6967.64,6967.6 3842,0 6967.7,-3125.6 6967.7,-6967.6 0,-1236 -327.7,-2450 -947.7,-3510.8 z m 1137.1,6534.4 c -391.3,925 -951.3,1755.7 -1664.5,2468.9 -713.3,713.3 -1543.9,1273.3 -2468.9,1664.5 -957.9,405.2 -1975.2,610.6 -3023.7,610.6 -1048.4,0 -2065.7,-205.4 -3023.6,-610.6 -925,-391.2 -1755.71,-951.2 -2468.94,-1664.5 -713.25,-713.2 -1273.26,-1543.9 -1664.51,-2468.9 -405.16,-957.9 -610.59,-1975.2 -610.59,-3023.6 0,-1173.3 245.42,-2296.4 709.75,-3247.9 350.88,-719.1 479.9,-1512.8 616.49,-2353.1 33.06,-203.4 67.25,-413.7 104.71,-622.2 49.11,-273.5 140.54,-782.4 552.23,-1052.8 301.73,-198.1 562.6,-172 728.3,-115.1 182.67,62.7 319.45,184 429.36,281.4 49.9,44.2 142.6,126.4 176.2,133.4 118.1,5.6 171.7,-33.9 212.1,-77.6 69.1,-74.7 231.1,-327.9 241.8,-1062.9 7.2,-494.2 -56.4,-990 -87,-1228.2 -71.4,-556.2 4.9,-963 233.3,-1243.6 121.8,-149.7 349.9,-334.5 744.6,-365 369.8,-28.6 724.6,106.4 973.5,370.3 254.6,270 371,641.4 319.4,1019 -13.8,101.1 -32.5,195.3 -49.1,278.5 -58.3,292.9 -72.7,402.9 40.8,572.4 106.5,159.2 336.7,305.8 435.2,243.2 0.6,-0.4 63.6,-63.8 22,-411.6 -7,-57.9 -32.8,-162.7 -57.8,-264.1 -103.6,-420.8 -245.6,-997.2 93.1,-1357 235,-249.7 528.1,-217 685.6,-199.4 23.8,2.6 56.8,6.3 78.1,7.2 116.7,-86.6 212.2,-394.6 208.5,-684.4 -4.5,-346.4 -119.9,-697.9 -242,-1070 -12.9,-39.3 -25.8,-78.6 -38.5,-117.8 -143.8,-442.5 -291.4,-959.4 -221.1,-1494.1 52.7,-401.4 240.4,-790.2 528.5,-1094.6 297.5,-314.3 682.6,-516.8 1084.2,-570 68.2,-9 137.1,-13.5 206.4,-13.5 348.4,0 705.2,112.5 1004.4,320.9 374.1,260.4 619.4,633.1 690.7,1049.5 91.1,531.9 -95.2,1031 -244.9,1432.1 -126.7,339.6 -354.6,1224.8 -464.4,2129.7 -136.9,1128.4 -20.5,1716.8 134,1891.2 36.9,41.7 79.4,55 201.3,85.3 175.7,43.8 441.2,109.8 647.8,392.3 0.9,1.2 1.8,2.4 2.6,3.6 30.6,42.8 57.9,88.1 82.7,133.9 40.3,-244.2 0.8,-553.5 -37.7,-855.5 -36.5,-286.1 -74.2,-581.9 -49.2,-854.7 50.5,-550.4 394.9,-1039.7 877.4,-1246.4 439.1,-188.1 916.2,-117.6 1309,193.5 401.3,317.8 592.6,792.1 553.1,1371.6 -32.8,482.3 -219.9,953.3 -371.1,1263.5 -383.9,787.9 -336.6,1637 153.3,2753.2 154.6,352.4 391.1,632.5 641.6,929.2 212,251.1 431.2,510.8 619,832.1 691.6,1183.2 1057.1,2536.8 1057.1,3914.5 0,1048.4 -205.4,2065.7 -610.6,3023.6"
         style="fill:#292a2c;fill-opacity:1;fill-rule:nonzero;stroke:none"
         transform="matrix(0.13333333,0,0,-0.13333333,0,4000)" />
      <path
         id="path6"
         d="m 18991,16739.1 v 0 c -154.6,0 -294.9,-92.3 -354.3,-235 -652,-1566.9 -2199.1,-2671.3 -3999.3,-2671.3 -1800.2,0 -3347.2,1104.4 -3999.3,2671.3 -59.4,142.7 -199.6,235 -354.2,235 v 0 c -274.4,0 -460.24,-279.1 -354.88,-532.5 3.96,-9.5 7.95,-19 11.97,-28.5 256.71,-607 624.21,-1152.1 1092.21,-1620.1 468,-468 1013.1,-835.4 1620.1,-1092.2 628.6,-265.9 1296.2,-400.7 1984.1,-400.7 688,0 1355.5,134.8 1984.2,400.7 607,256.8 1152.1,624.2 1620,1092.2 468,468 835.5,1013.1 1092.3,1620.1 4,9.5 8,19 11.9,28.5 105.4,253.4 -80.4,532.5 -354.8,532.5"
         style="fill:#292a2c;fill-opacity:1;fill-rule:nonzero;stroke:none"
         transform="matrix(0.13333333,0,0,-0.13333333,0,4000)" />
      <path
         id="path7"
         d="m 12074.2,17128.7 c 230.7,-374 536.2,-429.8 697.7,-429.8 161.6,0 467.1,55.8 697.7,429.7 89.8,145.6 162.6,328.2 222.7,558.3 103.3,395.9 160.1,912.3 160.1,1453.9 0,541.6 -56.8,1058 -160.1,1453.9 -60.1,230.1 -132.9,412.7 -222.7,558.2 -230.6,374 -536.1,429.8 -697.7,429.8 -161.5,0 -467,-55.8 -697.7,-429.8 -89.8,-145.5 -162.6,-328.1 -222.6,-558.2 -103.3,-395.9 -160.2,-912.3 -160.2,-1453.9 0,-541.6 56.9,-1058 160.2,-1453.9 60,-230.1 132.8,-412.7 222.6,-558.2"
         style="fill:#292a2c;fill-opacity:1;fill-rule:nonzero;stroke:none"
         transform="matrix(0.13333333,0,0,-0.13333333,0,4000)" />
      <path
         id="path8"
         d="m 15805.2,17128.7 c 230.6,-374 536.1,-429.8 697.7,-429.8 161.6,0 467.1,55.8 697.7,429.8 89.8,145.5 162.6,328.1 222.6,558.2 103.3,395.9 160.2,912.3 160.2,1453.9 0,541.6 -56.9,1058 -160.2,1453.9 -60,230.1 -132.8,412.7 -222.6,558.2 -230.6,374 -536.1,429.8 -697.7,429.8 -161.6,0 -467.1,-55.8 -697.7,-429.8 -89.8,-145.5 -162.6,-328.1 -222.6,-558.2 -103.3,-395.9 -160.2,-912.3 -160.2,-1453.9 0,-541.6 56.9,-1058 160.2,-1453.9 60,-230.1 132.8,-412.7 222.6,-558.2"
         style="fill:#292a2c;fill-opacity:1;fill-rule:nonzero;stroke:none"
         transform="matrix(0.13333333,0,0,-0.13333333,0,4000)" />
      <path
         id="path9"
         d="m 9742.17,5166.6 c -19.62,-128.3 -65.45,-235.7 -122.57,-287.2 -3.51,-3.2 -9.51,-6.3 -16.9,-8.7 -44.42,-14.5 -73.62,-17.8 -87.89,-17.8 -0.13,0 -0.28,0 -0.41,0 -25.43,35.2 -86.45,181.5 -69.14,503.1 13.22,245.5 68.68,524.9 152.98,772.6 120.38,-331.3 183.36,-704.1 143.93,-962 z m -345.51,2093.8 c -395.92,-262.2 -592.61,-951.7 -658.8,-1236 -66.51,-285.7 -195.54,-1003.2 42.33,-1495.1 95.95,-198.3 243.92,-342.8 427.93,-417.9 95.96,-39.1 198.32,-58.7 306.36,-58.7 106.98,0 219.53,19.2 336.87,57.6 114.69,37.5 217.15,96.5 304.35,175.3 198.1,178.9 328.6,441.7 377.3,760 v 0.1 c 99.1,648.1 -172.8,1605.7 -606.05,2134.6 -130.05,158.8 -359.16,193.4 -530.29,80.1"
         style="fill:#292a2c;fill-opacity:1;fill-rule:nonzero;stroke:none"
         transform="matrix(0.13333333,0,0,-0.13333333,0,4000)" />
    </g>
    <line
       x1="1.4210855e-14"
       y1="88.430252"
       x2="101.6"
       y2="88.430252"
       stroke="#ffff00"
       stroke-width="0.645497"
       id="accent-line" />
  </g>
  <g
     inkscape:label="Widget Guides"
     inkscape:groupmode="layer"
     style="display:none"
     opacity="0.6"
     id="g77"
     sodipodi:insensitive="true">
    <!-- KNOBS (Rogan1PWhite, ~4mm radius) -->
    <!-- Left column -->
    <circle
       cx="10"
       cy="23"
       r="4"
       fill="none"
       stroke="#ff00ff"
       stroke-width="0.2"
       stroke-dasharray="1, 0.5"
       id="circle34" />
    <circle
       cx="10"
       cy="41.5"
       r="4"
       fill="none"
       stroke="#ff00ff"
       stroke-width="0.2"
       stroke-dasharray="1, 0.5"
       id="circle35" />
    <circle
       cx="10"
       cy="60"
       r="4"
       fill="none"
       stroke="#ff00ff"
       stroke-width="0.2"
       stroke-dasharray="1, 0.5"
       id="circle36" />
    <circle
       cx="10"
       cy="78.5"
       r="4"
       fill="none"
       stroke="#ff00ff"
       stroke-width="0.2"
       stroke-dasharray="1, 0.5"
       id="circle37" />
    <!-- Right column -->
    <circle
       cx="26"
       cy="23"
       r="4"
       fill="none"
       stroke="#ff00ff"
       stroke-width="0.2"
       stroke-dasharray="1, 0.5"
       id="circle38" />
    <circle
       cx="26"
       cy="41.5"
       r="4"
       fill="none"
       stroke="#ff00ff"
       stroke-width="0.2"
       stroke-dasharray="1, 0.5"
       id="circle39" />
    <circle
       cx="26"
       cy="60"
       r="4"
       fill="none"
       stroke="#ff00ff"
       stroke-width="0.2"
       stroke-dasharray="1, 0.5"
       id="circle40" />
    <circle
       cx="26"
       cy="78.5"
       r="4"
       fill="none"
       stroke="#ff00ff"
       stroke-width="0.2"
       stroke-dasharray="1, 0.5"
       id="circle41" />
    <!-- GENERATE BUTTON (VCVButton, ~2.5mm radius) at (69, 69) -->
    <circle
       cx="69"
       cy="69"
       r="2.5"
       fill="none"
       stroke="#ff00ff"
       stroke-width="0.2"
       stroke-dasharray="1, 0.5"
       id="circle42" />
    <!-- GENERATE LED (SmallLight, ~1mm radius) at (75, 69) -->
    <circle
       cx="75"
       cy="69"
       r="1"
       fill="none"
       stroke="#ff00ff"
       stroke-width="0.2"
       stroke-dasharray="1, 0.5"
       id="circle43" />
    <!-- SCALE DISPLAY rect at (42, 76) size (54, 8) -->
    <rect
       x="42"
       y="76"
       width="54"
       height="8"
       fill="none"
       stroke="#ff00ff"
       stroke-width="0.2"
       stroke-dasharray="1, 0.5"
       rx="1"
       id="rect43" />
    <!-- PIANO ROLL DISPLAY at (42, 12) size (54, 36) -->
    <rect
       x="42"
       y="12"
       width="54"
       height="36"
       fill="none"
       stroke="#ff00ff"
       stroke-width="0.2"
       stroke-dasharray="1, 0.5"
       rx="1"
       id="rect44" />
    <!-- PAGE BUTTONS (~3.2mm square) -->
    <!-- Left page button at (37, 24) -->
    <rect
       x="37"
       y="24"
       width="3.2"
       height="3.2"
       fill="none"
       stroke="#ff00ff"
       stroke-width="0.2"
       stroke-dasharray="1, 0.5"
       id="rect45" />
    <!-- Right page button at (97, 24) -->
    <rect
       x="97"
       y="24"
       width="3.2"
       height="3.2"
       fill="none"
       stroke="#ff00ff"
       stroke-width="0.2"
       stroke-dasharray="1, 0.5"
       id="rect46" />
    <!-- PAGE INDICATOR at (61.5, 49) size (~13.2 x 3.2) -->
    <rect
       x="61.5"
       y="49"
       width="13.2"
       height="3.2"
       fill="none"
       stroke="#ff00ff"
       stroke-width="0.2"
       stroke-dasharray="1, 0.5"
       id="rect47" />
    <!-- INDICATOR ROWS -->
    <!-- Octave row at (42, 50) size (54, 2.5) -->
    <rect
       x="42"
       y="50"
       width="54"
       height="2.5"
       fill="none"
       stroke="#ff00ff"
       stroke-width="0.15"
       stroke-dasharray="1, 0.5"
       id="rect48" />
    <!-- Slide row at (42, 53) size (54, 2.5) -->
    <rect
       x="42"
       y="53"
       width="54"
       height="2.5"
       fill="none"
       stroke="#ff00ff"
       stroke-width="0.15"
       stroke-dasharray="1, 0.5"
       id="rect49" />
    <!-- Accent row at (42, 56) size (54, 2.5) -->
    <rect
       x="42"
       y="56"
       width="54"
       height="2.5"
       fill="none"
       stroke="#ff00ff"
       stroke-width="0.15"
       stroke-dasharray="1, 0.5"
       id="rect50" />
    <!-- Step numbers at (42, 59) size (54, 3) -->
    <rect
       x="42"
       y="59"
       width="54"
       height="3"
       fill="none"
       stroke="#ff00ff"
       stroke-width="0.15"
       stroke-dasharray="1, 0.5"
       id="rect51" />
    <!-- INPUT JACKS (PJ301MPort, ~4.2mm radius) -->
    <circle
       cx="10"
       cy="100"
       r="4.1999998"
       fill="none"
       stroke="#ff00ff"
       stroke-width="0.2"
       stroke-dasharray="1, 0.5"
       id="circle51" />
    <circle
       cx="22"
       cy="100"
       r="4.1999998"
       fill="none"
       stroke="#ff00ff"
       stroke-width="0.2"
       stroke-dasharray="1, 0.5"
       id="circle52" />
    <circle
       cx="34"
       cy="100"
       r="4.1999998"
       fill="none"
       stroke="#ff00ff"
       stroke-width="0.2"
       stroke-dasharray="1, 0.5"
       id="circle53" />
    <!-- OUTPUT JACKS (PJ301MPort, ~4.2mm radius) -->
    <circle
       cx="52"
       cy="100"
       r="4.1999998"
       fill="none"
       stroke="#ff00ff"
       stroke-width="0.2"
       stroke-dasharray="1, 0.5"
       id="circle54" />
    <circle
       cx="64"
       cy="100"
       r="4.1999998"
       fill="none"
       stroke="#ff00ff"
       stroke-width="0.2"
       stroke-dasharray="1, 0.5"
       id="circle55" />
    <circle
       cx="76"
       cy="100"
       r="4.1999998"
       fill="none"
       stroke="#ff00ff"
       stroke-width="0.2"
       stroke-dasharray="1, 0.5"
       id="circle56" />
    <circle
       cx="88"
       cy="100"
       r="4.1999998"
       fill="none"
       stroke="#ff00ff"
       stroke-width="0.2"
       stroke-dasharray="1, 0.5"
       id="circle57" />
    <!-- SCREWS (ScrewSilver, 5.08mm square, guides at center) -->
    <circle
       cx="7.6199999"
       cy="2.54"
       r="2.54"
       fill="none"
       stroke="#ff00ff"
       stroke-width="0.2"
       stroke-dasharray="1, 0.5"
       id="circle58" />
    <circle
       cx="93.980003"
       cy="2.54"
       r="2.54"
       fill="none"
       stroke="#ff00ff"
       stroke-width="0.2"
       stroke-dasharray="1, 0.5"
       id="circle59" />
    <circle
       cx="7.6199999"
       cy="125.96"
       r="2.54"
       fill="none"
       stroke="#ff00ff"
       stroke-width="0.2"
       stroke-dasharray="1, 0.5"
       id="circle60" />
    <circle
       cx="93.980003"
       cy="125.96"
       r="2.54"
       fill="none"
       stroke="#ff00ff"
       stroke-width="0.2"
       stroke-dasharray="1, 0.5"
       id="circle61" />
    <!-- STEP INDICATOR LEDs (TinyLight, ~0.7mm radius) -->
    <!-- Row 1 at y=112 -->
    <circle
       cx="45"
       cy="112"
       r="0.69999999"
       fill="none"
       stroke="#ff00ff"
       stroke-width="0.15"
       id="circle62" />
    <circle
       cx="51.75"
       cy="112"
       r="0.69999999"
       fill="none"
       stroke="#ff00ff"
       stroke-width="0.15"
       id="circle63" />
    <circle
       cx="58.5"
       cy="112"
       r="0.69999999"
       fill="none"
       stroke="#ff00ff"
       stroke-width="0.15"
       id="circle64" />
    <circle
       cx="65.25"
       cy="112"
       r="0.69999999"
       fill="none"
       stroke="#ff00ff"
       stroke-width="0.15"
       id="circle65" />
    <circle
       cx="72"
       cy="112"
       r="0.69999999"
       fill="none"
       stroke="#ff00ff"
       stroke-width="0.15"
       id="circle66" />
    <circle
       cx="78.75"
       cy="112"
       r="0.69999999"
       fill="none"
       stroke="#ff00ff"
       stroke-width="0.15"
       id="circle67" />
    <circle
       cx="85.5"
       cy="112"
       r="0.69999999"
       fill="none"
       stroke="#ff00ff"
       stroke-width="0.15"
       id="circle68" />
    <circle
       cx="92.25"
       cy="112"
       r="0.69999999"
       fill="none"
       stroke="#ff00ff"
       stroke-width="0.15"
       id="circle69" />
    <!-- Row 2 at y=116 -->
    <circle
       cx="45"
       cy="116"
       r="0.69999999"
       fill="none"
       stroke="#ff00ff"
       stroke-width="0.15"
       id="circle70" />
    <circle
       cx="51.75"
       cy="116"
       r="0.69999999"
       fill="none"
       stroke="#ff00ff"
       stroke-width="0.15"
       id="circle71" />
    <circle
       cx="58.5"
       cy="116"
       r="0.69999999"
       fill="none"
       stroke="#ff00ff"
       stroke-width="0.15"
       id="circle72" />
    <circle
       cx="65.25"
       cy="116"
       r="0.69999999"
       fill="none"
       stroke="#ff00ff"
       stroke-width="0.15"
       id="circle73" />
    <circle
       cx="72"
       cy="116"
       r="0.69999999"
       fill="none"
       stroke="#ff00ff"
       stroke-width="0.15"
       id="circle74" />
    <circle
       cx="78.75"
       cy="116"
       r="0.69999999"
       fill="none"
       stroke="#ff00ff"
       stroke-width="0.15"
       id="circle75" />
    <circle
       cx="85.5"
       cy="116"
       r="0.69999999"
       fill="none"
       stroke="#ff00ff"
       stroke-width="0.15"
       id="circle76" />
    <circle
       cx="92.25"
       cy="116"
       r="0.69999999"
       fill="none"
       stroke="#ff00ff"
       stroke-width="0.15"
       id="circle77" />
  </g>
  <g
     inkscape:groupmode="layer"
     id="layer5"
     inkscape:label="Text Editable"
     sodipodi:insensitive="true"
     style="display:none">
    <text
       xml:space="preserve"
       style="font-size:2.11667px;font-family:'JetBrains Mono';-inkscape-font-specification:'JetBrains Mono';writing-mode:lr-tb;direction:ltr;fill:#b3b3b3;stroke-width:0.264583"
       x="6.7741947"
       y="93.727776"
       id="text78"><tspan
         sodipodi:role="line"
         id="tspan78"
         style="stroke-width:0.264583"
         x="6.7741947"
         y="93.727776">CLOCK</tspan></text>
    <text
       xml:space="preserve"
       style="font-size:2.11667px;font-family:'JetBrains Mono';-inkscape-font-specification:'JetBrains Mono';writing-mode:lr-tb;direction:ltr;fill:#b3b3b3;stroke-width:0.264583"
       x="18.785835"
       y="93.730247"
       id="text79"><tspan
         sodipodi:role="line"
         id="tspan79"
         style="stroke-width:0.264583"
         x="18.785835"
         y="93.730247">RESET</tspan></text>
    <text
       xml:space="preserve"
       style="font-size:2.11667px;font-family:'JetBrains Mono';-inkscape-font-specification:'JetBrains Mono';writing-mode:lr-tb;direction:ltr;fill:#b3b3b3;stroke-width:0.264583"
       x="28.911522"
       y="93.729187"
       id="text80"><tspan
         sodipodi:role="line"
         id="tspan80"
         style="stroke-width:0.264583"
         x="28.911522"
         y="93.729187">GENERATE</tspan></text>
    <text
       xml:space="preserve"
       style="font-size:2.11667px;font-family:'JetBrains Mono';-inkscape-font-specification:'JetBrains Mono';writing-mode:lr-tb;direction:ltr;fill:#b3b3b3;stroke-width:0.264583"
       x="48.830284"
       y="93.480766"
       id="text81"><tspan
         sodipodi:role="line"
         style="stroke-width:0.264583"
         x="48.830284"
         y="93.480766"
         id="tspan83">V/OCT</tspan></text>
    <text
       xml:space="preserve"
       style="font-size:2.11667px;font-family:'JetBrains Mono';-inkscape-font-specification:'JetBrains Mono';writing-mode:lr-tb;direction:ltr;fill:#b3b3b3;stroke-width:0.264583"
       x="61.451527"
       y="93.491348"
       id="text84"><tspan
         sodipodi:role="line"
         id="tspan84"
         style="stroke-width:0.264583"
         x="61.451527"
         y="93.491348">GATE</tspan></text>
    <text
       xml:space="preserve"
       style="font-size:2.11667px;font-family:'JetBrains Mono';-inkscape-font-specification:'JetBrains Mono';writing-mode:lr-tb;direction:ltr;fill:#b3b3b3;stroke-width:0.264583"
       x="72.274956"
       y="93.491348"
       id="text85"><tspan
         sodipodi:role="line"
         id="tspan85"
         style="stroke-width:0.264583"
         x="72.274956"
         y="93.491348">ACCENT</tspan></text>
    <text
       xml:space="preserve"
       style="font-size:2.11667px;font-family:'JetBrains Mono';-inkscape-font-specification:'JetBrains Mono';writing-mode:lr-tb;direction:ltr;fill:#b3b3b3;stroke-width:0.264583"
       x="84.833458"
       y="93.492409"
       id="text86"><tspan
         sodipodi:role="line"
         id="tspan86"
         style="stroke-width:0.264583"
         x="84.833458"
         y="93.492409">SLIDE</tspan></text>
    <text
       xml:space="preserve"
       style="font-size:2.11667px;font-family:'JetBrains Mono';-inkscape-font-specification:'JetBrains Mono';writing-mode:lr-tb;direction:ltr;fill:#1a1a1a;stroke-width:0.264583"
       x="6.6612782"
       y="72.159859"
       id="text87"><tspan
         sodipodi:role="line"
         id="tspan87"
         style="stroke-width:0.264583"
         x="6.6612782"
         y="72.159859">SLIDE</tspan></text>
    <text
       xml:space="preserve"
       style="font-size:2.11667px;font-family:'JetBrains Mono';-inkscape-font-specification:'JetBrains Mono';writing-mode:lr-tb;direction:ltr;fill:#1a1a1a;stroke-width:0.264583"
       x="22.181526"
       y="72.158798"
       id="text88"><tspan
         sodipodi:role="line"
         id="tspan88"
         style="stroke-width:0.264583"
         x="22.181526"
         y="72.158798">OCTAVE</tspan></text>
    <text
       xml:space="preserve"
       style="font-size:2.11667px;font-family:'JetBrains Mono';-inkscape-font-specification:'JetBrains Mono';writing-mode:lr-tb;direction:ltr;fill:#1a1a1a;stroke-width:0.264583"
       x="6.1952844"
       y="53.54229"
       id="text89"><tspan
         sodipodi:role="line"
         id="tspan89"
         style="stroke-width:0.264583"
         x="6.1952844"
         y="53.54229">ACCENT</tspan></text>
    <text
       xml:space="preserve"
       style="font-size:2.11667px;font-family:'JetBrains Mono';-inkscape-font-specification:'JetBrains Mono';writing-mode:lr-tb;direction:ltr;fill:#1a1a1a;stroke-width:0.264583"
       x="23.420837"
       y="53.229836"
       id="text90"><tspan
         sodipodi:role="line"
         id="tspan90"
         style="stroke-width:0.264583"
         x="23.420837"
         y="53.229836">ROOT</tspan></text>
    <text
       xml:space="preserve"
       style="font-size:2.11667px;font-family:'JetBrains Mono';-inkscape-font-specification:'JetBrains Mono';writing-mode:lr-tb;direction:ltr;fill:#1a1a1a;stroke-width:0.264583"
       x="6.2069259"
       y="35.087811"
       id="text91"><tspan
         sodipodi:role="line"
         id="tspan91"
         style="stroke-width:0.264583"
         x="6.2069259"
         y="35.087811">SPREAD</tspan></text>
    <text
       xml:space="preserve"
       style="font-size:2.11667px;font-family:'JetBrains Mono';-inkscape-font-specification:'JetBrains Mono';writing-mode:lr-tb;direction:ltr;fill:#1a1a1a;stroke-width:0.264583"
       x="22.83346"
       y="34.931053"
       id="text92"><tspan
         sodipodi:role="line"
         id="tspan92"
         style="stroke-width:0.264583"
         x="22.83346"
         y="34.931053">SCALE</tspan></text>
    <text
       xml:space="preserve"
       style="font-size:2.11667px;font-family:'JetBrains Mono';-inkscape-font-specification:'JetBrains Mono';writing-mode:lr-tb;direction:ltr;fill:#1a1a1a;stroke-width:0.264583"
       x="5.4946661"
       y="16.631214"
       id="text93"><tspan
         sodipodi:role="line"
         id="tspan93"
         style="stroke-width:0.264583"
         x="5.4946661"
         y="16.631214">DENSITY</tspan></text>
    <text
       xml:space="preserve"
       style="font-size:2.11667px;font-family:'JetBrains Mono';-inkscape-font-specification:'JetBrains Mono';writing-mode:lr-tb;direction:ltr;fill:#1a1a1a;stroke-width:0.264583"
       x="22.16671"
       y="16.630156"
       id="text94"><tspan
         sodipodi:role="line"
         id="tspan94"
         style="stroke-width:0.264583"
         x="22.16671"
         y="16.630156">LENGTH</tspan></text>
    <text
       xml:space="preserve"
       style="font-size:1.76389px;font-family:'JetBrains Mono';-inkscape-font-specification:'JetBrains Mono';writing-mode:lr-tb;direction:ltr;fill:#1a1a1a;stroke-width:0.264583"
       x="64.759605"
       y="64.886497"
       id="text95"><tspan
         sodipodi:role="line"
         id="tspan95"
         style="font-size:1.76389px;stroke-width:0.264583"
         x="64.759605"
         y="64.886497">GENERATE</tspan></text>
    <text
       xml:space="preserve"
       style="font-size:4.23333px;font-family:QUARTZO;-inkscape-font-specification:QUARTZO;text-align:center;writing-mode:lr-tb;direction:ltr;text-anchor:middle;display:inline;fill:none;stroke:#000000;stroke-width:0.264583;stroke-dasharray:none"
       x="50.799969"
       y="6.7494898"
       id="text1-7"
       inkscape:label="Title"><tspan
         sodipodi:role="line"
         style="stroke-width:0.264583;stroke-dasharray:none"
         x="50.799969"
         y="6.7494898"
         id="tspan2-6">ACID GENERATOR</tspan></text>
  </g>
  <g
     inkscape:groupmode="layer"
     id="g33"
     inkscape:label="Text Shapes">
    <path
       d="m 7.4176624,93.748942 q -0.1397002,0 -0.2434171,-0.05292 -0.1016001,-0.05292 -0.1587502,-0.152401 -0.055033,-0.1016 -0.055033,-0.239183 v -0.698501 q 0,-0.139701 0.055033,-0.239184 0.05715,-0.09948 0.1587502,-0.1524 0.1037169,-0.05292 0.2434171,-0.05292 0.1397002,0 0.2413003,0.05503 0.1016002,0.05292 0.1566336,0.152401 0.055033,0.09948 0.055033,0.237067 H 7.6801294 q 0,-0.131234 -0.06985,-0.201084 -0.067733,-0.07197 -0.1926169,-0.07197 -0.1248836,0 -0.1968503,0.06985 -0.06985,0.06985 -0.06985,0.201084 v 0.700618 q 0,0.131233 0.06985,0.2032 0.071967,0.06985 0.1968503,0.06985 0.1248835,0 0.1926169,-0.06985 0.06985,-0.07197 0.06985,-0.2032 h 0.1905003 q 0,0.135466 -0.055033,0.237067 -0.055033,0.09948 -0.1566336,0.154517 -0.1016001,0.05292 -0.2413003,0.05292 z m 0.8699521,-0.02117 v -1.545169 h 0.1905003 v 1.371602 h 0.698501 v 0.173567 z m 1.6615866,0.02117 q -0.1397002,0 -0.2413003,-0.05292 -0.099484,-0.05292 -0.1545169,-0.152401 -0.052917,-0.1016 -0.052917,-0.239183 v -0.698501 q 0,-0.139701 0.052917,-0.239184 0.055033,-0.09948 0.1545169,-0.1524 0.1016001,-0.05292 0.2413003,-0.05292 0.1396999,0 0.2391839,0.05292 0.1016,0.05292 0.154517,0.1524 0.05503,0.09948 0.05503,0.237067 v 0.700618 q 0,0.137583 -0.05503,0.239183 -0.05292,0.09948 -0.154517,0.152401 -0.09948,0.05292 -0.2391839,0.05292 z m 0,-0.17145 q 0.1248839,0 0.1904999,-0.06985 0.06773,-0.07197 0.06773,-0.2032 v -0.698501 q 0,-0.131234 -0.06773,-0.201084 -0.06562,-0.07197 -0.1904999,-0.07197 -0.1227668,0 -0.1905003,0.07197 -0.067733,0.06985 -0.067733,0.201084 v 0.698501 q 0,0.131233 0.067733,0.2032 0.067734,0.06985 0.1905003,0.06985 z m 1.2784689,0.17145 q -0.1397,0 -0.243417,-0.05292 -0.1016,-0.05292 -0.15875,-0.152401 -0.05503,-0.1016 -0.05503,-0.239183 v -0.698501 q 0,-0.139701 0.05503,-0.239184 0.05715,-0.09948 0.15875,-0.1524 0.103717,-0.05292 0.243417,-0.05292 0.139701,0 0.241301,0.05503 0.1016,0.05292 0.156633,0.152401 0.05503,0.09948 0.05503,0.237067 h -0.190501 q 0,-0.131234 -0.06985,-0.201084 -0.06773,-0.07197 -0.192617,-0.07197 -0.124883,0 -0.19685,0.06985 -0.06985,0.06985 -0.06985,0.201084 v 0.700618 q 0,0.131233 0.06985,0.2032 0.07197,0.06985 0.19685,0.06985 0.124884,0 0.192617,-0.06985 0.06985,-0.07197 0.06985,-0.2032 h 0.190501 q 0,0.135466 -0.05503,0.237067 -0.05503,0.09948 -0.156633,0.154517 -0.1016,0.05292 -0.241301,0.05292 z m 0.821269,-0.02117 v -1.545169 h 0.190501 v 0.662517 h 0.2286 l 0.3429,-0.662517 h 0.207434 l -0.383117,0.742951 0.404284,0.802218 H 12.821524 L 12.46169,93.012341 h -0.22225 v 0.715435 z"
       id="text2"
       style="font-size:2.11667px;font-family:'JetBrains Mono';-inkscape-font-specification:'JetBrains Mono';fill:#b3b3b3;stroke-width:0.264583"
       aria-label="CLOCK" />
    <path
       d="m 18.980569,93.730247 v -1.545169 h 0.478367 q 0.137584,0 0.241301,0.05715 0.103716,0.05503 0.160867,0.154516 0.05715,0.09948 0.05715,0.232834 0,0.156634 -0.08255,0.268817 -0.08043,0.112184 -0.220134,0.154517 l 0.32385,0.677334 H 19.715053 L 19.41872,93.07408 h -0.247651 v 0.656167 z m 0.1905,-0.827617 h 0.287867 q 0.118534,0 0.190501,-0.07408 0.07197,-0.0762 0.07197,-0.198967 0,-0.124883 -0.07197,-0.198967 -0.07197,-0.07408 -0.190501,-0.07408 h -0.287867 z m 1.096436,0.827617 v -1.545169 h 0.889001 v 0.173567 h -0.700617 v 0.478368 h 0.626534 v 0.17145 h -0.626534 v 0.548218 h 0.700617 v 0.173566 z m 1.701803,0.02117 q -0.1524,0 -0.262467,-0.0508 -0.10795,-0.0508 -0.167217,-0.14605 -0.05927,-0.09525 -0.06138,-0.226484 h 0.1905 q 0,0.116417 0.07832,0.18415 0.08043,0.06773 0.22225,0.06773 0.133351,0 0.207434,-0.06562 0.0762,-0.06562 0.0762,-0.182033 0,-0.09313 -0.0508,-0.162984 -0.04868,-0.06985 -0.141817,-0.09737 l -0.20955,-0.06562 q -0.15875,-0.04868 -0.245534,-0.162983 -0.08467,-0.1143 -0.08467,-0.268817 0,-0.124884 0.05503,-0.215901 0.05715,-0.09313 0.15875,-0.143933 0.1016,-0.05292 0.239184,-0.05292 0.2032,0 0.325967,0.1143 0.122767,0.112184 0.124883,0.300567 h -0.1905 q 0,-0.1143 -0.06985,-0.1778 -0.06773,-0.06562 -0.192617,-0.06562 -0.122767,0 -0.192617,0.05927 -0.06773,0.05927 -0.06773,0.1651 0,0.09525 0.0508,0.165101 0.0508,0.06985 0.14605,0.09948 l 0.211667,0.06773 q 0.154517,0.04868 0.239184,0.1651 0.08467,0.116417 0.08467,0.27305 0,0.127 -0.05927,0.222251 -0.05927,0.09525 -0.167217,0.148166 -0.105834,0.05292 -0.247651,0.05292 z m 0.838202,-0.02117 v -1.545169 h 0.889002 v 0.173567 h -0.700618 v 0.478368 h 0.626534 v 0.17145 h -0.626534 v 0.548218 h 0.700618 v 0.173566 z m 1.598087,0 v -1.373718 h -0.423334 v -0.173567 h 1.037168 v 0.173567 h -0.423334 v 1.373718 z"
       id="text3"
       style="font-size:2.11667px;font-family:'JetBrains Mono';-inkscape-font-specification:'JetBrains Mono';fill:#b3b3b3;stroke-width:0.264583"
       aria-label="RESET" />
    <path
       d="m 29.55499,93.750354 q -0.139701,0 -0.243417,-0.05292 -0.101601,-0.05292 -0.158751,-0.1524 -0.05503,-0.1016 -0.05503,-0.239184 v -0.698501 q 0,-0.1397 0.05503,-0.239184 0.05715,-0.09948 0.158751,-0.1524 0.103716,-0.05292 0.243417,-0.05292 0.1397,0 0.2413,0.05503 0.1016,0.05292 0.156633,0.1524 0.05503,0.09948 0.05503,0.237067 h -0.1905 q 0,-0.131234 -0.06985,-0.201084 -0.06773,-0.07197 -0.192617,-0.07197 -0.124884,0 -0.196851,0.06985 -0.06985,0.06985 -0.06985,0.201083 v 0.700618 q 0,0.131234 0.06985,0.2032 0.07197,0.07197 0.196851,0.07197 0.124883,0 0.192617,-0.07197 0.06985,-0.07197 0.06985,-0.2032 v -0.1905 h -0.313268 v -0.173567 h 0.503768 v 0.364067 q 0,0.135467 -0.05503,0.237067 -0.05503,0.09948 -0.156633,0.154517 -0.1016,0.05292 -0.2413,0.05292 z m 0.838202,-0.02117 v -1.545169 h 0.889001 v 0.173567 h -0.700618 v 0.478367 h 0.626535 v 0.171451 h -0.626535 v 0.548217 h 0.700618 v 0.173567 z m 1.248836,0 v -1.545169 h 0.254 l 0.472017,1.322919 q -0.0042,-0.05292 -0.01058,-0.129117 -0.0042,-0.07832 -0.0085,-0.162984 -0.0021,-0.08678 -0.0021,-0.162983 v -0.867835 h 0.18415 v 1.545169 h -0.254 l -0.469901,-1.322919 q 0.0042,0.0508 0.0085,0.129117 0.0042,0.0762 0.0064,0.162984 0.0042,0.08467 0.0042,0.162983 v 0.867835 z m 1.291169,0 v -1.545169 h 0.889001 v 0.173567 h -0.700617 v 0.478367 h 0.626534 v 0.171451 h -0.626534 v 0.548217 h 0.700617 v 0.173567 z m 1.253069,0 v -1.545169 h 0.478368 q 0.137583,0 0.2413,0.05715 0.103717,0.05503 0.160867,0.154517 0.05715,0.09948 0.05715,0.232834 0,0.156633 -0.08255,0.268817 -0.08043,0.112183 -0.220134,0.154517 l 0.323851,0.677334 h -0.224367 l -0.296334,-0.656168 h -0.24765 v 0.656168 z m 0.190501,-0.827618 h 0.287867 q 0.118533,0 0.1905,-0.07408 0.07197,-0.0762 0.07197,-0.198967 0,-0.124884 -0.07197,-0.198967 -0.07197,-0.07408 -0.1905,-0.07408 h -0.287867 z m 0.990602,0.827618 0.402167,-1.545169 h 0.256117 l 0.400051,1.545169 h -0.192617 l -0.1016,-0.410634 h -0.467784 l -0.1016,0.410634 z m 0.334434,-0.571501 h 0.389467 l -0.118533,-0.476251 q -0.03387,-0.135466 -0.05292,-0.226483 -0.01905,-0.09102 -0.02328,-0.118534 -0.0042,0.02752 -0.02328,0.118534 -0.01905,0.09102 -0.05292,0.224367 z m 1.369486,0.571501 v -1.373719 h -0.423334 v -0.173567 h 1.037168 v 0.173567 h -0.423334 v 1.373719 z m 0.941919,0 v -1.545169 h 0.889002 v 0.173567 h -0.700618 v 0.478367 h 0.626534 v 0.171451 h -0.626534 v 0.548217 h 0.700618 v 0.173567 z"
       id="text4"
       style="font-size:2.11667px;font-family:'JetBrains Mono';-inkscape-font-specification:'JetBrains Mono';fill:#b3b3b3;stroke-width:0.264583"
       aria-label="GENERATE" />
    <path
       d="m 49.334052,93.480766 -0.397934,-1.545169 h 0.19685 l 0.262467,1.049869 q 0.02752,0.110066 0.04657,0.205317 0.01905,0.09313 0.02752,0.141816 0.0085,-0.04868 0.0254,-0.141816 0.01905,-0.09525 0.04657,-0.205317 l 0.260351,-1.049869 h 0.192617 l -0.400051,1.545169 z m 0.924985,0.232834 0.751418,-1.98967 h 0.201084 l -0.751418,1.98967 z m 1.746254,-0.211667 q -0.139701,0 -0.241301,-0.05292 -0.09948,-0.05292 -0.154517,-0.1524 -0.05292,-0.1016 -0.05292,-0.239184 v -0.698501 q 0,-0.1397 0.05292,-0.239183 0.05503,-0.09948 0.154517,-0.152401 0.1016,-0.05292 0.241301,-0.05292 0.1397,0 0.239183,0.05292 0.1016,0.05292 0.154517,0.152401 0.05503,0.09948 0.05503,0.237067 v 0.700617 q 0,0.137584 -0.05503,0.239184 -0.05292,0.09948 -0.154517,0.1524 -0.09948,0.05292 -0.239183,0.05292 z m 0,-0.17145 q 0.124883,0 0.1905,-0.06985 0.06773,-0.07197 0.06773,-0.203201 v -0.698501 q 0,-0.131233 -0.06773,-0.201083 -0.06562,-0.07197 -0.1905,-0.07197 -0.122767,0 -0.190501,0.07197 -0.06773,0.06985 -0.06773,0.201083 v 0.698501 q 0,0.131234 0.06773,0.203201 0.06773,0.06985 0.190501,0.06985 z m 1.278469,0.17145 q -0.1397,0 -0.243417,-0.05292 -0.1016,-0.05292 -0.15875,-0.1524 -0.05503,-0.1016 -0.05503,-0.239184 v -0.698501 q 0,-0.1397 0.05503,-0.239183 0.05715,-0.09948 0.15875,-0.152401 0.103717,-0.05292 0.243417,-0.05292 0.1397,0 0.2413,0.05503 0.1016,0.05292 0.156634,0.1524 0.05503,0.09948 0.05503,0.237067 h -0.1905 q 0,-0.131233 -0.06985,-0.201083 -0.06773,-0.07197 -0.192617,-0.07197 -0.124884,0 -0.19685,0.06985 -0.06985,0.06985 -0.06985,0.201084 v 0.700617 q 0,0.131234 0.06985,0.203201 0.07197,0.06985 0.19685,0.06985 0.124883,0 0.192617,-0.06985 0.06985,-0.07197 0.06985,-0.203201 h 0.1905 q 0,0.135467 -0.05503,0.237067 -0.05503,0.09948 -0.156634,0.154517 -0.1016,0.05292 -0.2413,0.05292 z m 1.166286,-0.02117 v -1.373718 h -0.423334 v -0.173567 h 1.037168 v 0.173567 h -0.423334 v 1.373718 z"
       id="text5"
       style="font-size:2.11667px;font-family:'JetBrains Mono';-inkscape-font-specification:'JetBrains Mono';fill:#28220b;stroke-width:0.264583"
       aria-label="V/OCT" />
    <path
       d="m 62.094994,93.512515 q -0.1397,0 -0.243417,-0.05292 -0.1016,-0.05292 -0.15875,-0.1524 -0.05503,-0.1016 -0.05503,-0.239184 v -0.698501 q 0,-0.1397 0.05503,-0.239183 0.05715,-0.09948 0.15875,-0.152401 0.103717,-0.05292 0.243417,-0.05292 0.139701,0 0.241301,0.05503 0.1016,0.05292 0.156633,0.1524 0.05503,0.09948 0.05503,0.237067 h -0.190501 q 0,-0.131233 -0.06985,-0.201083 -0.06773,-0.07197 -0.192617,-0.07197 -0.124883,0 -0.19685,0.06985 -0.06985,0.06985 -0.06985,0.201084 v 0.700617 q 0,0.131234 0.06985,0.203201 0.07197,0.07197 0.19685,0.07197 0.124884,0 0.192617,-0.07197 0.06985,-0.07197 0.06985,-0.203201 v -0.1905 h -0.313267 v -0.173567 h 0.503768 v 0.364067 q 0,0.135467 -0.05503,0.237067 -0.05503,0.09948 -0.156633,0.154517 -0.1016,0.05292 -0.241301,0.05292 z m 0.732369,-0.02117 0.402167,-1.545169 h 0.256117 l 0.400051,1.545169 h -0.192617 l -0.1016,-0.410634 h -0.467784 l -0.101601,0.410634 z m 0.334434,-0.571501 h 0.389467 l -0.118534,-0.47625 q -0.03387,-0.135467 -0.05292,-0.226484 -0.01905,-0.09102 -0.02328,-0.118534 -0.0042,0.02752 -0.02328,0.118534 -0.01905,0.09102 -0.05292,0.224367 z m 1.369486,0.571501 V 92.11763 h -0.423334 v -0.173567 h 1.037168 v 0.173567 h -0.423334 v 1.373718 z m 0.941919,0 v -1.545169 h 0.889001 v 0.173567 h -0.700618 v 0.478368 h 0.626535 v 0.17145 h -0.626535 v 0.548217 h 0.700618 v 0.173567 z"
       id="text14"
       style="font-size:2.11667px;font-family:'JetBrains Mono';-inkscape-font-specification:'JetBrains Mono';fill:#28220b;stroke-width:0.264583"
       aria-label="GATE" />
    <path
       d="m 72.380789,93.491348 0.402168,-1.545169 h 0.256117 l 0.40005,1.545169 h -0.192617 l -0.1016,-0.410634 h -0.467784 l -0.1016,0.410634 z m 0.334434,-0.571501 h 0.389467 l -0.118533,-0.47625 q -0.03387,-0.135467 -0.05292,-0.226484 -0.01905,-0.09102 -0.02328,-0.118534 -0.0042,0.02752 -0.02328,0.118534 -0.01905,0.09102 -0.05292,0.224367 z m 1.473203,0.592668 q -0.1397,0 -0.243417,-0.05292 -0.1016,-0.05292 -0.15875,-0.1524 -0.05503,-0.1016 -0.05503,-0.239184 v -0.698501 q 0,-0.1397 0.05503,-0.239183 0.05715,-0.09948 0.15875,-0.152401 0.103717,-0.05292 0.243417,-0.05292 0.1397,0 0.2413,0.05503 0.101601,0.05292 0.156634,0.1524 0.05503,0.09948 0.05503,0.237067 h -0.1905 q 0,-0.131233 -0.06985,-0.201083 -0.06773,-0.07197 -0.192617,-0.07197 -0.124883,0 -0.19685,0.06985 -0.06985,0.06985 -0.06985,0.201084 v 0.700617 q 0,0.131234 0.06985,0.203201 0.07197,0.06985 0.19685,0.06985 0.124884,0 0.192617,-0.06985 0.06985,-0.07197 0.06985,-0.203201 h 0.1905 q 0,0.135467 -0.05503,0.237067 -0.05503,0.09948 -0.156634,0.154517 -0.1016,0.05292 -0.2413,0.05292 z m 1.270003,0 q -0.1397,0 -0.243417,-0.05292 -0.1016,-0.05292 -0.15875,-0.1524 -0.05503,-0.1016 -0.05503,-0.239184 v -0.698501 q 0,-0.1397 0.05503,-0.239183 0.05715,-0.09948 0.15875,-0.152401 0.103717,-0.05292 0.243417,-0.05292 0.1397,0 0.2413,0.05503 0.1016,0.05292 0.156634,0.1524 0.05503,0.09948 0.05503,0.237067 h -0.1905 q 0,-0.131233 -0.06985,-0.201083 -0.06773,-0.07197 -0.192617,-0.07197 -0.124884,0 -0.19685,0.06985 -0.06985,0.06985 -0.06985,0.201084 v 0.700617 q 0,0.131234 0.06985,0.203201 0.07197,0.06985 0.19685,0.06985 0.124883,0 0.192617,-0.06985 0.06985,-0.07197 0.06985,-0.203201 h 0.1905 q 0,0.135467 -0.05503,0.237067 -0.05503,0.09948 -0.156634,0.154517 -0.1016,0.05292 -0.2413,0.05292 z m 0.838202,-0.02117 v -1.545169 h 0.889001 v 0.173567 h -0.700618 v 0.478368 h 0.626535 v 0.17145 h -0.626535 v 0.548217 h 0.700618 v 0.173567 z m 1.248836,0 v -1.545169 h 0.254 l 0.472018,1.322919 q -0.0042,-0.05292 -0.01058,-0.129117 -0.0042,-0.07832 -0.0085,-0.162984 -0.0021,-0.08678 -0.0021,-0.162983 v -0.867835 h 0.18415 v 1.545169 h -0.254 L 77.710567,92.16843 q 0.0042,0.0508 0.0085,0.129116 0.0042,0.0762 0.0064,0.162984 0.0042,0.08467 0.0042,0.162984 v 0.867834 z m 1.619253,0 V 92.11763 h -0.423334 v -0.173567 h 1.037169 v 0.173567 h -0.423334 v 1.373718 z"
       id="text15"
       style="font-size:2.11667px;font-family:'JetBrains Mono';-inkscape-font-specification:'JetBrains Mono';fill:#28220b;stroke-width:0.264583"
       aria-label="ACCENT" />
    <path
       d="m 85.476926,93.513575 q -0.152401,0 -0.262467,-0.0508 -0.107951,-0.0508 -0.167217,-0.14605 -0.05927,-0.09525 -0.06138,-0.226484 h 0.1905 q 0,0.116417 0.07832,0.184151 0.08043,0.06773 0.222251,0.06773 0.13335,0 0.207433,-0.06562 0.0762,-0.06562 0.0762,-0.182033 0,-0.09313 -0.0508,-0.162984 -0.04868,-0.06985 -0.141817,-0.09737 l -0.20955,-0.06562 q -0.15875,-0.04868 -0.245534,-0.162984 -0.08467,-0.1143 -0.08467,-0.268817 0,-0.124884 0.05503,-0.2159 0.05715,-0.09313 0.15875,-0.143934 0.1016,-0.05292 0.239184,-0.05292 0.2032,0 0.325967,0.114301 0.122767,0.112183 0.124884,0.300567 h -0.190501 q 0,-0.114301 -0.06985,-0.177801 -0.06773,-0.06562 -0.192617,-0.06562 -0.122767,0 -0.192617,0.05927 -0.06773,0.05927 -0.06773,0.165101 0,0.09525 0.0508,0.1651 0.0508,0.06985 0.14605,0.09948 l 0.211667,0.06773 q 0.154517,0.04868 0.239184,0.1651 0.08467,0.116417 0.08467,0.27305 0,0.127001 -0.05927,0.222251 -0.05927,0.09525 -0.167217,0.148167 -0.105834,0.05292 -0.24765,0.05292 z m 0.869952,-0.02117 V 91.94724 h 0.1905 v 1.371602 h 0.698501 v 0.173567 z m 1.248836,0 v -0.173567 h 0.315384 V 92.120807 H 87.595714 V 91.94724 h 0.825501 v 0.173567 h -0.315384 v 1.198035 h 0.315384 v 0.173567 z m 1.242486,0 V 91.94724 h 0.40005 q 0.150284,0 0.258234,0.05715 0.110067,0.05715 0.169334,0.160867 0.06138,0.103717 0.06138,0.245533 v 0.615951 q 0,0.141817 -0.06138,0.247651 -0.05927,0.103717 -0.169334,0.160867 -0.10795,0.05715 -0.258234,0.05715 z m 0.1905,-0.169334 h 0.20955 q 0.1397,0 0.218017,-0.07832 0.08043,-0.07832 0.08043,-0.218017 V 92.41079 q 0,-0.137583 -0.08043,-0.2159 -0.07832,-0.07832 -0.218017,-0.07832 H 89.0287 Z m 1.096436,0.169334 V 91.94724 h 0.889001 v 0.173567 h -0.700618 v 0.478367 h 0.626535 v 0.17145 h -0.626535 v 0.548218 h 0.700618 v 0.173567 z"
       id="text16"
       style="font-size:2.11667px;font-family:'JetBrains Mono';-inkscape-font-specification:'JetBrains Mono';fill:#28220b;stroke-width:0.264583"
       aria-label="SLIDE" />
    <path
       d="m 7.3047459,72.181025 q -0.1524002,0 -0.2624671,-0.0508 -0.1079501,-0.0508 -0.1672169,-0.14605 -0.059267,-0.09525 -0.061383,-0.226484 h 0.1905003 q 0,0.116417 0.078317,0.184151 0.080433,0.06773 0.2222503,0.06773 0.1333502,0 0.2074336,-0.06562 0.0762,-0.06562 0.0762,-0.182033 0,-0.09313 -0.0508,-0.162984 -0.048683,-0.06985 -0.1418169,-0.09737 l -0.2095503,-0.06562 q -0.1587503,-0.04868 -0.2455337,-0.162984 -0.084667,-0.1143 -0.084667,-0.268817 0,-0.124884 0.055033,-0.2159 0.05715,-0.09313 0.1587502,-0.143934 0.1016002,-0.05292 0.2391837,-0.05292 0.2032003,0 0.3259672,0.1143 0.1227669,0.112184 0.1248835,0.300568 H 7.5693296 q 0,-0.114301 -0.06985,-0.177801 -0.067733,-0.06562 -0.1926169,-0.06562 -0.1227669,0 -0.192617,0.05927 -0.067733,0.05927 -0.067733,0.165101 0,0.09525 0.0508,0.1651 0.0508,0.06985 0.1460503,0.09948 l 0.211667,0.06773 q 0.1545169,0.04868 0.2391837,0.1651 0.084667,0.116417 0.084667,0.27305 0,0.127001 -0.059267,0.222251 -0.059267,0.09525 -0.1672169,0.148167 -0.1058335,0.05292 -0.2476504,0.05292 z M 8.174698,72.159859 V 70.61469 h 0.1905003 v 1.371602 h 0.6985011 v 0.173567 z m 1.248836,0 V 71.986292 H 9.7389178 V 70.788257 H 9.423534 V 70.61469 h 0.825501 v 0.173567 H 9.9336515 v 1.198035 h 0.3153835 v 0.173567 z m 1.242486,0 V 70.61469 h 0.400051 q 0.150283,0 0.258233,0.05715 0.110067,0.05715 0.169334,0.160867 0.06138,0.103717 0.06138,0.245533 v 0.615951 q 0,0.141817 -0.06138,0.247651 -0.05927,0.103717 -0.169334,0.160867 -0.10795,0.05715 -0.258233,0.05715 z m 0.1905,-0.169334 h 0.209551 q 0.1397,0 0.218017,-0.07832 0.08043,-0.07832 0.08043,-0.218017 V 71.07824 q 0,-0.137583 -0.08043,-0.2159 -0.07832,-0.07832 -0.218017,-0.07832 H 10.85652 Z m 1.096436,0.169334 V 70.61469 h 0.889001 v 0.173567 H 12.14134 v 0.478367 h 0.626534 v 0.17145 H 12.14134 v 0.548218 h 0.700617 v 0.173567 z"
       id="text17"
       style="font-size:2.11667px;font-family:'JetBrains Mono';-inkscape-font-specification:'JetBrains Mono';fill:#1a1a1a;stroke-width:0.264583"
       aria-label="SLIDE" />
    <path
       d="m 65.295828,64.904136 q -0.116417,0 -0.202847,-0.0441 -0.08467,-0.0441 -0.132292,-0.127 -0.04586,-0.08467 -0.04586,-0.19932 v -0.582083 q 0,-0.116417 0.04586,-0.19932 0.04762,-0.0829 0.132292,-0.127 0.08643,-0.0441 0.202847,-0.0441 0.116417,0 0.201083,0.04586 0.08467,0.0441 0.130528,0.127 0.04586,0.0829 0.04586,0.197556 h -0.15875 q 0,-0.109361 -0.05821,-0.16757 -0.05645,-0.05997 -0.160514,-0.05997 -0.10407,0 -0.164042,0.05821 -0.05821,0.05821 -0.05821,0.16757 v 0.583847 q 0,0.109362 0.05821,0.169334 0.05997,0.05997 0.164042,0.05997 0.104069,0 0.160514,-0.05997 0.05821,-0.05997 0.05821,-0.169334 v -0.15875 H 65.253495 V 64.23033 H 65.6733 v 0.303389 q 0,0.112889 -0.04586,0.197556 -0.04586,0.0829 -0.130528,0.128764 -0.08467,0.0441 -0.201083,0.0441 z m 0.698501,-0.01764 v -1.287639 h 0.740834 v 0.144639 h -0.583848 v 0.398639 h 0.522112 v 0.142875 h -0.522112 v 0.456848 h 0.583848 v 0.144638 z m 1.040696,0 v -1.287639 h 0.211667 l 0.393347,1.102431 q -0.0035,-0.0441 -0.0088,-0.107597 -0.0035,-0.06526 -0.0071,-0.13582 -0.0018,-0.07232 -0.0018,-0.135819 v -0.723195 h 0.153459 v 1.287639 h -0.211667 l -0.391584,-1.102431 q 0.0035,0.04233 0.0071,0.107598 0.0035,0.0635 0.0053,0.135819 0.0035,0.07056 0.0035,0.13582 v 0.723194 z m 1.075973,0 v -1.287639 h 0.740834 v 0.144639 h -0.583847 v 0.398639 h 0.522111 v 0.142875 h -0.522111 v 0.456848 h 0.583847 v 0.144638 z m 1.044224,0 v -1.287639 h 0.398639 q 0.114653,0 0.201084,0.04763 0.08643,0.04586 0.134055,0.128764 0.04763,0.0829 0.04763,0.194028 0,0.130528 -0.06879,0.224014 -0.06703,0.09349 -0.183445,0.128764 l 0.269875,0.564444 h -0.186972 l -0.246945,-0.546805 h -0.206375 v 0.546805 z m 0.15875,-0.689681 h 0.239889 q 0.09878,0 0.15875,-0.06174 0.05997,-0.0635 0.05997,-0.165805 0,-0.10407 -0.05997,-0.165806 -0.05997,-0.06174 -0.15875,-0.06174 h -0.239889 z m 0.825502,0.689681 0.335139,-1.287639 h 0.21343 l 0.333376,1.287639 h -0.160514 l -0.08467,-0.342194 h -0.38982 l -0.08467,0.342194 z m 0.278694,-0.47625 h 0.324556 l -0.09878,-0.396875 q -0.02822,-0.112889 -0.0441,-0.188736 -0.01588,-0.07585 -0.0194,-0.09878 -0.0035,0.02293 -0.0194,0.09878 -0.01587,0.07585 -0.0441,0.186972 z m 1.141237,0.47625 v -1.144764 h -0.352778 v -0.144639 h 0.864306 v 0.144639 h -0.352778 v 1.144764 z m 0.784932,0 v -1.287639 h 0.740834 v 0.144639 h -0.583848 v 0.398639 h 0.522112 v 0.142875 h -0.522112 v 0.456848 h 0.583848 v 0.144638 z"
       id="text33"
       style="font-size:1.76389px;font-family:'JetBrains Mono';-inkscape-font-specification:'JetBrains Mono';fill:#1a1a1a;stroke-width:0.264583"
       aria-label="GENERATE" />
    <path
       d="m 22.816528,71.650795 q -0.1397,0 -0.2413,-0.05292 -0.09948,-0.05292 -0.154517,-0.1524 -0.05292,-0.1016 -0.05292,-0.239184 V 70.50779 q 0,-0.1397 0.05292,-0.239184 0.05503,-0.09948 0.154517,-0.1524 0.1016,-0.05292 0.2413,-0.05292 0.1397,0 0.239184,0.05292 0.1016,0.05292 0.154517,0.1524 0.05503,0.09948 0.05503,0.237068 v 0.700617 q 0,0.137584 -0.05503,0.239184 -0.05292,0.09948 -0.154517,0.1524 -0.09948,0.05292 -0.239184,0.05292 z m 0,-0.17145 q 0.124884,0 0.1905,-0.06985 0.06773,-0.07197 0.06773,-0.203201 v -0.698501 q 0,-0.131233 -0.06773,-0.201083 -0.06562,-0.07197 -0.1905,-0.07197 -0.122767,0 -0.1905,0.07197 -0.06773,0.06985 -0.06773,0.201083 v 0.698501 q 0,0.131234 0.06773,0.203201 0.06773,0.06985 0.1905,0.06985 z m 1.27847,0.17145 q -0.139701,0 -0.243417,-0.05292 -0.101601,-0.05292 -0.158751,-0.1524 -0.05503,-0.1016 -0.05503,-0.239184 V 70.50779 q 0,-0.1397 0.05503,-0.239184 0.05715,-0.09948 0.158751,-0.1524 0.103716,-0.05292 0.243417,-0.05292 0.1397,0 0.2413,0.05503 0.1016,0.05292 0.156633,0.1524 0.05503,0.09948 0.05503,0.237067 h -0.1905 q 0,-0.131233 -0.06985,-0.201083 -0.06773,-0.07197 -0.192617,-0.07197 -0.124884,0 -0.196851,0.06985 -0.06985,0.06985 -0.06985,0.201084 v 0.700617 q 0,0.131234 0.06985,0.203201 0.07197,0.06985 0.196851,0.06985 0.124883,0 0.192617,-0.06985 0.06985,-0.07197 0.06985,-0.203201 h 0.1905 q 0,0.135467 -0.05503,0.237067 -0.05503,0.09948 -0.156633,0.154517 -0.1016,0.05292 -0.2413,0.05292 z m 1.166285,-0.02117 V 70.255906 H 24.837949 V 70.08234 h 1.037169 v 0.173566 h -0.423334 v 1.373719 z m 0.836086,0 0.402167,-1.545169 h 0.256117 l 0.400051,1.545169 h -0.192617 l -0.1016,-0.410634 h -0.467784 l -0.101601,0.410634 z m 0.334434,-0.571501 h 0.389467 l -0.118534,-0.47625 q -0.03387,-0.135467 -0.05292,-0.226484 -0.01905,-0.09102 -0.02328,-0.118534 -0.0042,0.02752 -0.02328,0.118534 -0.01905,0.09102 -0.05292,0.224367 z m 1.333503,0.571501 -0.397934,-1.545169 h 0.19685 l 0.262467,1.049868 q 0.02752,0.110067 0.04657,0.205317 0.01905,0.09313 0.02752,0.141817 0.0085,-0.04868 0.0254,-0.141817 0.01905,-0.09525 0.04657,-0.205317 L 28.2331,70.084456 h 0.192617 l -0.400051,1.545169 z m 0.977902,0 v -1.545169 h 0.889001 v 0.173567 h -0.700617 v 0.478368 h 0.626534 v 0.17145 h -0.626534 v 0.548217 h 0.700617 v 0.173567 z"
       id="text18"
       style="font-size:2.11667px;font-family:'JetBrains Mono';-inkscape-font-specification:'JetBrains Mono';fill:#1a1a1a;stroke-width:0.264583"
       aria-label="OCTAVE" />
    <path
       d="m 6.3011179,52.483956 0.4021672,-1.545169 h 0.2561171 l 0.4000506,1.545169 H 7.1668358 L 7.0652357,52.073322 H 6.5974516 L 6.4958515,52.483956 Z M 6.6355517,51.912455 H 7.025019 L 6.9064855,51.436204 q -0.033867,-0.135467 -0.052917,-0.226484 -0.01905,-0.09102 -0.023283,-0.118533 -0.00423,0.02752 -0.023283,0.118533 -0.01905,0.09102 -0.052917,0.224367 z m 1.473203,0.592667 q -0.1397002,0 -0.243417,-0.05292 -0.1016002,-0.05292 -0.1587502,-0.152401 -0.055034,-0.1016 -0.055034,-0.239183 v -0.698501 q 0,-0.139701 0.055034,-0.239184 0.05715,-0.09948 0.1587502,-0.1524 0.1037168,-0.05292 0.243417,-0.05292 0.1397002,0 0.2413004,0.05503 0.1016002,0.05292 0.1566336,0.152401 0.055033,0.09948 0.055033,0.237067 H 8.3712218 q 0,-0.131234 -0.06985,-0.201084 -0.067733,-0.07197 -0.192617,-0.07197 -0.1248835,0 -0.1968503,0.06985 -0.06985,0.06985 -0.06985,0.201084 v 0.700618 q 0,0.131233 0.06985,0.2032 0.071967,0.06985 0.1968503,0.06985 0.1248836,0 0.192617,-0.06985 0.06985,-0.07197 0.06985,-0.2032 h 0.1905003 q 0,0.135467 -0.055033,0.237067 -0.055033,0.09948 -0.1566336,0.154517 -0.1016002,0.05292 -0.2413004,0.05292 z m 1.2700028,0 q -0.1397003,0 -0.2434171,-0.05292 -0.1016001,-0.05292 -0.1587502,-0.152401 -0.055033,-0.1016 -0.055033,-0.239183 v -0.698501 q 0,-0.139701 0.055033,-0.239184 0.05715,-0.09948 0.1587502,-0.1524 0.1037168,-0.05292 0.2434171,-0.05292 0.1397002,0 0.2413003,0.05503 0.1016002,0.05292 0.1566336,0.152401 0.055033,0.09948 0.055033,0.237067 H 9.6412245 q 0,-0.131234 -0.06985,-0.201084 -0.067733,-0.07197 -0.1926169,-0.07197 -0.1248836,0 -0.1968503,0.06985 -0.06985,0.06985 -0.06985,0.201084 v 0.700618 q 0,0.131233 0.06985,0.2032 0.071967,0.06985 0.1968503,0.06985 0.1248835,0 0.1926169,-0.06985 0.06985,-0.07197 0.06985,-0.2032 h 0.1905003 q 0,0.135467 -0.055033,0.237067 -0.055033,0.09948 -0.1566336,0.154517 -0.1016001,0.05292 -0.2413003,0.05292 z m 0.8382015,-0.02117 v -1.545169 h 0.889002 v 0.173567 h -0.700618 v 0.478367 h 0.626534 v 0.17145 h -0.626534 v 0.548218 h 0.700618 v 0.173567 z m 1.248837,0 v -1.545169 h 0.254 l 0.472017,1.322918 q -0.0042,-0.05292 -0.01058,-0.129116 -0.0042,-0.07832 -0.0085,-0.162984 -0.0021,-0.08678 -0.0021,-0.162984 v -0.867834 h 0.18415 v 1.545169 h -0.254 l -0.469901,-1.322919 q 0.0042,0.0508 0.0085,0.129117 0.0042,0.0762 0.0063,0.162983 0.0042,0.08467 0.0042,0.162984 v 0.867835 z m 1.619253,0 v -1.373719 h -0.423334 v -0.173567 h 1.037168 v 0.173567 h -0.423334 v 1.373719 z"
       id="text19"
       style="font-size:2.11667px;font-family:'JetBrains Mono';-inkscape-font-specification:'JetBrains Mono';fill:#1a1a1a;stroke-width:0.264583"
       aria-label="ACCENT" />
    <path
       d="m 23.615571,52.171502 v -1.54517 h 0.478367 q 0.137584,0 0.241301,0.05715 0.103717,0.05503 0.160867,0.154516 0.05715,0.09948 0.05715,0.232834 0,0.156634 -0.08255,0.268817 -0.08043,0.112184 -0.220134,0.154517 l 0.32385,0.677335 h -0.224367 l -0.296333,-0.656168 h -0.247651 v 0.656168 z m 0.1905,-0.827618 h 0.287867 q 0.118534,0 0.190501,-0.07408 0.07197,-0.0762 0.07197,-0.198967 0,-0.124883 -0.07197,-0.198967 -0.07197,-0.07408 -0.190501,-0.07408 h -0.287867 z m 1.51977,0.848784 q -0.1397,0 -0.2413,-0.05292 -0.09948,-0.05292 -0.154517,-0.1524 -0.05292,-0.1016 -0.05292,-0.239183 v -0.698499 q 0,-0.1397 0.05292,-0.239183 0.05503,-0.09948 0.154517,-0.1524 0.1016,-0.05292 0.2413,-0.05292 0.1397,0 0.239184,0.05292 0.1016,0.05292 0.154517,0.1524 0.05503,0.09948 0.05503,0.237067 v 0.700618 q 0,0.137583 -0.05503,0.239183 -0.05292,0.09948 -0.154517,0.1524 -0.09948,0.05292 -0.239184,0.05292 z m 0,-0.17145 q 0.124884,0 0.1905,-0.06985 0.06773,-0.07197 0.06773,-0.2032 v -0.698502 q 0,-0.131233 -0.06773,-0.201083 -0.06562,-0.07197 -0.1905,-0.07197 -0.122767,0 -0.1905,0.07197 -0.06773,0.06985 -0.06773,0.201083 v 0.698502 q 0,0.131233 0.06773,0.2032 0.06773,0.06985 0.1905,0.06985 z m 1.270003,0.17145 q -0.1397,0 -0.241301,-0.05292 -0.09948,-0.05292 -0.154516,-0.1524 -0.05292,-0.1016 -0.05292,-0.239183 v -0.698499 q 0,-0.1397 0.05292,-0.239183 0.05503,-0.09948 0.154516,-0.1524 0.101601,-0.05292 0.241301,-0.05292 0.1397,0 0.239184,0.05292 0.1016,0.05292 0.154516,0.1524 0.05503,0.09948 0.05503,0.237067 v 0.700618 q 0,0.137583 -0.05503,0.239183 -0.05292,0.09948 -0.154516,0.1524 -0.09948,0.05292 -0.239184,0.05292 z m 0,-0.17145 q 0.124883,0 0.1905,-0.06985 0.06773,-0.07197 0.06773,-0.2032 v -0.698502 q 0,-0.131233 -0.06773,-0.201083 -0.06562,-0.07197 -0.1905,-0.07197 -0.122767,0 -0.1905,0.07197 -0.06773,0.06985 -0.06773,0.201083 v 0.698502 q 0,0.131233 0.06773,0.2032 0.06773,0.06985 0.1905,0.06985 z m 1.174752,0.150284 v -1.373719 h -0.423334 v -0.173567 h 1.037169 v 0.173567 h -0.423334 v 1.373719 z"
       id="text28"
       style="font-size:2.11667px;font-family:'JetBrains Mono';-inkscape-font-specification:'JetBrains Mono';fill:#1a1a1a;stroke-width:0.264583"
       aria-label="ROOT" />
    <path
       d="m 6.8503935,34.050643 q -0.1524002,0 -0.2624671,-0.0508 -0.1079501,-0.0508 -0.1672169,-0.14605 -0.059267,-0.09525 -0.061383,-0.226484 h 0.1905003 q 0,0.116417 0.078317,0.184151 0.080433,0.06773 0.2222503,0.06773 0.1333502,0 0.2074337,-0.06562 0.0762,-0.06562 0.0762,-0.182033 0,-0.09313 -0.0508,-0.162984 -0.048683,-0.06985 -0.1418169,-0.09737 L 6.73186,33.305575 q -0.1587502,-0.04868 -0.2455337,-0.162983 -0.084667,-0.1143 -0.084667,-0.268817 0,-0.124884 0.055033,-0.215901 0.05715,-0.09313 0.1587503,-0.143933 0.1016001,-0.05292 0.2391837,-0.05292 0.2032003,0 0.3259671,0.1143 0.1227669,0.112184 0.1248835,0.300567 H 7.1149773 q 0,-0.1143 -0.06985,-0.1778 -0.067733,-0.06562 -0.1926169,-0.06562 -0.1227669,0 -0.192617,0.05927 -0.067733,0.05927 -0.067733,0.1651 0,0.09525 0.0508,0.165101 0.0508,0.06985 0.1460502,0.09948 l 0.211667,0.06773 q 0.1545169,0.04868 0.2391837,0.1651 0.084667,0.116417 0.084667,0.27305 0,0.127 -0.059267,0.222251 -0.059267,0.09525 -0.1672169,0.148166 -0.1058335,0.05292 -0.2476504,0.05292 z m 0.8212687,-0.02117 v -1.54517 h 0.4974174 q 0.1439336,0 0.2497671,0.05715 0.1058335,0.05503 0.1629836,0.156633 0.059267,0.1016 0.059267,0.241301 0,0.137583 -0.059267,0.2413 -0.05715,0.1016 -0.1629836,0.15875 -0.1058335,0.05503 -0.2497671,0.05503 H 7.8621625 v 0.635001 z m 0.1905003,-0.806452 h 0.3069171 q 0.1248836,0 0.198967,-0.0762 0.0762,-0.07832 0.0762,-0.207433 0,-0.131234 -0.0762,-0.207434 -0.074083,-0.0762 -0.198967,-0.0762 H 7.8621625 Z m 1.0795024,0.806452 v -1.54517 h 0.4783674 q 0.1375836,0 0.2413004,0.05715 0.1037168,0.05503 0.1608669,0.154516 0.05715,0.09948 0.05715,0.232834 0,0.156634 -0.08255,0.268817 -0.080433,0.112184 -0.2201337,0.154517 l 0.3238505,0.677335 H 9.6761494 L 9.3798156,33.373309 H 9.1321652 v 0.656168 z m 0.1905003,-0.827618 h 0.2878671 q 0.1185336,0 0.1905003,-0.07408 0.071967,-0.0762 0.071967,-0.198967 0,-0.124883 -0.071967,-0.198967 -0.071967,-0.07408 -0.1905003,-0.07408 H 9.1321652 Z m 1.0964358,0.827618 v -1.54517 h 0.889001 v 0.173567 h -0.700617 v 0.478368 h 0.626534 v 0.17145 h -0.626534 v 0.548218 h 0.700617 v 0.173567 z m 1.164169,0 0.402168,-1.54517 h 0.256117 l 0.40005,1.54517 h -0.192617 l -0.1016,-0.410634 h -0.467784 l -0.1016,0.410634 z m 0.334434,-0.571501 h 0.389467 l -0.118533,-0.476251 q -0.03387,-0.135467 -0.05292,-0.226484 -0.01905,-0.09102 -0.02328,-0.118533 -0.0042,0.02752 -0.02328,0.118533 -0.01905,0.09102 -0.05292,0.224367 z m 1.024469,0.571501 v -1.54517 h 0.400051 q 0.150283,0 0.258234,0.05715 0.110066,0.05715 0.169333,0.160866 0.06138,0.103717 0.06138,0.245534 v 0.615951 q 0,0.141817 -0.06138,0.247651 -0.05927,0.103716 -0.169333,0.160866 -0.107951,0.05715 -0.258234,0.05715 z m 0.190501,-0.169334 h 0.20955 q 0.1397,0 0.218017,-0.07832 0.08043,-0.07832 0.08043,-0.218017 v -0.615951 q 0,-0.137583 -0.08043,-0.2159 -0.07832,-0.07832 -0.218017,-0.07832 h -0.20955 z"
       id="text29"
       style="font-size:2.11667px;font-family:'JetBrains Mono';-inkscape-font-specification:'JetBrains Mono';fill:#1a1a1a;stroke-width:0.264583"
       aria-label="SPREAD" />
    <path
       d="m 23.476928,33.893886 q -0.152401,0 -0.262468,-0.0508 -0.10795,-0.0508 -0.167216,-0.14605 -0.05927,-0.09525 -0.06138,-0.226484 h 0.1905 q 0,0.116417 0.07832,0.18415 0.08043,0.06773 0.222251,0.06773 0.13335,0 0.207433,-0.06562 0.0762,-0.06562 0.0762,-0.182034 0,-0.09313 -0.0508,-0.162983 -0.04868,-0.06985 -0.141817,-0.09737 l -0.20955,-0.06562 q -0.15875,-0.04868 -0.245534,-0.162984 -0.08467,-0.1143 -0.08467,-0.268817 0,-0.124883 0.05503,-0.2159 0.05715,-0.09313 0.15875,-0.143933 0.1016,-0.05292 0.239184,-0.05292 0.2032,0 0.325967,0.1143 0.122767,0.112183 0.124884,0.300567 h -0.190501 q 0,-0.1143 -0.06985,-0.1778 -0.06773,-0.06562 -0.192617,-0.06562 -0.122767,0 -0.192617,0.05927 -0.06773,0.05927 -0.06773,0.1651 0,0.09525 0.0508,0.1651 0.0508,0.06985 0.14605,0.09948 l 0.211667,0.06773 q 0.154517,0.04868 0.239184,0.1651 0.08467,0.116417 0.08467,0.273051 0,0.127 -0.05927,0.22225 -0.05927,0.09525 -0.167217,0.148167 -0.105834,0.05292 -0.24765,0.05292 z m 1.270002,0 q -0.1397,0 -0.243417,-0.05292 -0.1016,-0.05292 -0.15875,-0.1524 -0.05503,-0.1016 -0.05503,-0.239184 v -0.698501 q 0,-0.1397 0.05503,-0.239184 0.05715,-0.09948 0.15875,-0.1524 0.103717,-0.05292 0.243417,-0.05292 0.1397,0 0.241301,0.05503 0.1016,0.05292 0.156633,0.1524 0.05503,0.09948 0.05503,0.237067 h -0.190501 q 0,-0.131233 -0.06985,-0.201084 -0.06773,-0.07197 -0.192617,-0.07197 -0.124883,0 -0.19685,0.06985 -0.06985,0.06985 -0.06985,0.201083 v 0.700618 q 0,0.131234 0.06985,0.2032 0.07197,0.06985 0.19685,0.06985 0.124884,0 0.192617,-0.06985 0.06985,-0.07197 0.06985,-0.2032 h 0.190501 q 0,0.135467 -0.05503,0.237067 -0.05503,0.09948 -0.156633,0.154517 -0.101601,0.05292 -0.241301,0.05292 z m 0.732369,-0.02117 0.402167,-1.545169 h 0.256117 l 0.400051,1.545169 h -0.192617 l -0.1016,-0.410634 h -0.467784 l -0.101601,0.410634 z m 0.334434,-0.571501 H 26.2032 l -0.118534,-0.47625 q -0.03387,-0.135467 -0.05292,-0.226484 -0.01905,-0.09102 -0.02328,-0.118534 -0.0042,0.02752 -0.02328,0.118534 -0.01905,0.09102 -0.05292,0.224367 z m 1.073152,0.571501 v -1.545169 h 0.1905 v 1.371602 h 0.698501 v 0.173567 z m 1.238253,0 v -1.545169 h 0.889001 v 0.173567 h -0.700618 v 0.478367 h 0.626535 v 0.171451 h -0.626535 v 0.548217 h 0.700618 v 0.173567 z"
       id="text30"
       style="font-size:2.11667px;font-family:'JetBrains Mono';-inkscape-font-specification:'JetBrains Mono';fill:#1a1a1a;stroke-width:0.264583"
       aria-label="SCALE" />
    <path
       d="m 5.6893997,15.57288 v -1.545169 h 0.4000506 q 0.1502836,0 0.2582338,0.05715 0.1100668,0.05715 0.1693336,0.160867 0.061383,0.103717 0.061383,0.245534 v 0.615951 q 0,0.141817 -0.061383,0.24765 -0.059267,0.103717 -0.1693336,0.160867 -0.1079502,0.05715 -0.2582338,0.05715 z M 5.8799,15.403547 h 0.2095503 q 0.1397003,0 0.218017,-0.07832 0.080433,-0.07832 0.080433,-0.218017 v -0.615951 q 0,-0.137584 -0.080433,-0.215901 -0.078317,-0.07832 -0.218017,-0.07832 H 5.8799 Z m 1.0964358,0.169333 v -1.545169 h 0.8890014 v 0.173567 H 7.1647194 v 0.478367 h 0.6265343 v 0.171451 H 7.1647194 v 0.548217 h 0.7006178 v 0.173567 z m 1.248836,0 v -1.545169 h 0.2540004 l 0.4720174,1.322919 q -0.00423,-0.05292 -0.010583,-0.129117 -0.00423,-0.07832 -0.00847,-0.162984 -0.00212,-0.08678 -0.00212,-0.162983 V 14.027711 H 9.1141669 V 15.57288 H 8.8601728 L 8.3902721,14.249961 q 0.00423,0.0508 0.00847,0.129117 0.00423,0.0762 0.00635,0.162984 0.00423,0.08467 0.00423,0.162983 v 0.867835 z m 1.72297,0.02117 q -0.1524002,0 -0.2624671,-0.0508 -0.1079501,-0.0508 -0.1672169,-0.14605 -0.059267,-0.09525 -0.061383,-0.226484 h 0.1905003 q 0,0.116417 0.078317,0.18415 0.080433,0.06773 0.2222503,0.06773 0.1333506,0 0.2074336,-0.06562 0.0762,-0.06562 0.0762,-0.182034 0,-0.09313 -0.0508,-0.162983 -0.04868,-0.06985 -0.141816,-0.09737 l -0.2095517,-0.06561 q -0.1587503,-0.04868 -0.2455337,-0.162984 -0.084667,-0.1143 -0.084667,-0.268817 0,-0.124883 0.055033,-0.2159 0.05715,-0.09313 0.1587502,-0.143934 0.1016002,-0.05292 0.2391837,-0.05292 0.2031995,0 0.3259665,0.1143 0.122767,0.112183 0.124884,0.300567 h -0.1905 q 0,-0.1143 -0.06985,-0.1778 -0.06773,-0.06562 -0.1926161,-0.06562 -0.1227669,0 -0.192617,0.05927 -0.067733,0.05927 -0.067733,0.1651 0,0.09525 0.0508,0.1651 0.0508,0.06985 0.1460503,0.09948 l 0.2116668,0.06773 q 0.154517,0.04868 0.239184,0.1651 0.08467,0.116417 0.08467,0.273051 0,0.127 -0.05927,0.22225 -0.05927,0.09525 -0.167217,0.148167 -0.105833,0.05292 -0.2476504,0.05292 z m 0.8487852,-0.02117 v -0.173567 h 0.315384 v -1.198035 h -0.315384 v -0.173567 h 0.825502 v 0.173567 h -0.315384 v 1.198035 h 0.315384 v 0.173567 z m 1.587504,0 v -1.373719 h -0.423334 v -0.173567 h 1.037168 v 0.173567 h -0.423334 v 1.373719 z m 1.270002,0 v -0.577851 l -0.465667,-0.967318 h 0.19685 l 0.306917,0.635001 q 0.0254,0.05292 0.04022,0.09102 0.01482,0.03598 0.01905,0.05292 0.0042,-0.01693 0.01905,-0.05292 0.01693,-0.0381 0.04233,-0.09102 l 0.300567,-0.635001 h 0.196851 l -0.465668,0.967318 v 0.577851 z"
       id="text31"
       style="font-size:2.11667px;font-family:'JetBrains Mono';-inkscape-font-specification:'JetBrains Mono';fill:#1a1a1a;stroke-width:0.264583"
       aria-label="DENSITY" />
    <path
       d="m 22.410127,15.571822 v -1.545169 h 0.1905 v 1.371602 h 0.698501 v 0.173567 z m 1.238253,0 v -1.545169 h 0.889001 v 0.173566 h -0.700618 v 0.478368 h 0.626535 v 0.17145 h -0.626535 v 0.548218 h 0.700618 v 0.173567 z m 1.248836,0 v -1.545169 h 0.254 l 0.472017,1.322918 q -0.0042,-0.05292 -0.01058,-0.129117 -0.0042,-0.07832 -0.0085,-0.162983 -0.0021,-0.08678 -0.0021,-0.162984 v -0.867834 h 0.18415 v 1.545169 h -0.254 l -0.469901,-1.322919 q 0.0042,0.0508 0.0085,0.129117 0.0042,0.0762 0.0064,0.162983 0.0042,0.08467 0.0042,0.162984 v 0.867835 z m 1.72297,0.02117 q -0.139701,0 -0.243417,-0.05292 -0.101601,-0.05292 -0.158751,-0.152401 -0.05503,-0.1016 -0.05503,-0.239183 v -0.698501 q 0,-0.139701 0.05503,-0.239184 0.05715,-0.09948 0.158751,-0.1524 0.103716,-0.05292 0.243417,-0.05292 0.1397,0 0.2413,0.05503 0.1016,0.05292 0.156634,0.1524 0.05503,0.09948 0.05503,0.237068 h -0.1905 q 0,-0.131234 -0.06985,-0.201084 -0.06773,-0.07197 -0.192617,-0.07197 -0.124884,0 -0.196851,0.06985 -0.06985,0.06985 -0.06985,0.201084 v 0.700618 q 0,0.131233 0.06985,0.2032 0.07197,0.07197 0.196851,0.07197 0.124883,0 0.192617,-0.07197 0.06985,-0.07197 0.06985,-0.2032 v -0.190501 h -0.313267 v -0.173567 h 0.503767 v 0.364068 q 0,0.135466 -0.05503,0.237067 -0.05503,0.09948 -0.156634,0.154517 -0.1016,0.05292 -0.2413,0.05292 z m 1.166286,-0.02117 v -1.373719 h -0.423334 v -0.173567 h 1.037168 v 0.173567 h -0.423334 v 1.373719 z m 0.927102,0 v -1.545169 h 0.1905 v 0.660401 h 0.495301 v -0.660401 h 0.1905 v 1.545169 h -0.1905 V 14.86062 h -0.495301 v 0.711202 z"
       id="text32"
       style="font-size:2.11667px;font-family:'JetBrains Mono';-inkscape-font-specification:'JetBrains Mono';fill:#1a1a1a;stroke-width:0.264583"
       aria-label="LENGTH" />
    <path
       d="m 45.633058,125.35104 v -0.0318 h -0.5715 v 0.0318 h 0.169334 c 0.232833,0 0.215194,0.10583 0.172861,0.23636 l -0.377473,1.20297 -0.06703,0.20814 -0.02822,-0.007 0.07056,-0.23284 -0.448028,-1.43228 c -0.0071,-0.0212 -0.08114,-0.0635 -0.116417,-0.0635 -0.04233,0 -0.07408,0.0564 -0.123472,0.127 l -0.09172,0.13406 0.02117,0.0176 0.08819,-0.11995 c 0.02822,-0.0388 0.06703,-0.0247 0.07761,0.0106 l 0.518583,1.651 h 0.03881 l 0.469195,-1.49578 c 0.04586,-0.14111 0.08467,-0.23636 0.197555,-0.23636 z m 0.469195,1.25942 v -1.25942 c 0,-0.0388 -0.09525,-0.0882 -0.130527,-0.0882 -0.04233,0 -0.07408,0.0564 -0.123473,0.127 l -0.09172,0.13406 0.02117,0.0176 0.08819,-0.11995 c 0.02822,-0.0388 0.06703,-0.0282 0.06703,0.0106 v 1.16064 c 0,0.33161 0.116417,0.5468 0.366889,0.5468 0.208139,0 0.352778,-0.21519 0.458612,-0.41275 l 0.130527,-0.24341 0.105834,-0.1905 0.02822,0.0141 -0.123472,0.22578 v 0.51858 c 0,0.0388 0.09525,0.0882 0.130528,0.0882 0.04233,0 0.07408,-0.0564 0.123472,-0.127 l 0.09172,-0.13405 -0.02117,-0.0176 -0.0882,0.11994 c -0.02822,0.0388 -0.06703,0.0282 -0.06703,-0.0106 v -1.61925 c 0,-0.0388 -0.09525,-0.0882 -0.130528,-0.0882 -0.04233,0 -0.07408,0.0564 -0.123472,0.127 l -0.09172,0.13406 0.02117,0.0176 0.08819,-0.11995 c 0.02822,-0.0388 0.06703,-0.0282 0.06703,0.0106 v 0.97367 l -0.155223,0.28575 c -0.105833,0.19402 -0.197555,0.32455 -0.363361,0.32455 -0.176389,0 -0.278695,-0.15169 -0.278695,-0.40569 z m 1.495779,-1.88384 v 2.28953 c 0,0.0459 0.123472,0.12347 0.165806,0.12347 0.04233,0 0.07761,-0.06 0.123472,-0.127 l 0.141111,-0.20461 -0.02117,-0.0176 -0.119944,0.16934 c -0.04233,0.06 -0.119945,0.0282 -0.119945,-0.06 v -2.25425 c 0,-0.0388 -0.09525,-0.0882 -0.130528,-0.0882 -0.04233,0 -0.07408,0.0564 -0.123472,0.127 l -0.09172,0.13405 0.02117,0.0176 0.08819,-0.11994 c 0.02822,-0.0388 0.06703,-0.0282 0.06703,0.0106 z m 0.818445,0.70556 v 2.14489 c 0,0.14817 -0.0635,0.17992 -0.211667,0.17992 v 0.0317 h 0.592668 v -0.0317 c -0.148167,0 -0.211667,-0.0318 -0.211667,-0.17992 v -0.57503 c 0.151694,0.0811 0.352778,0.13758 0.5715,0.13758 0.550334,0 0.952501,-0.39511 0.952501,-0.93839 0,-0.51505 -0.359834,-0.93839 -0.797279,-0.93839 -0.306916,0 -0.437444,0.22578 -0.599722,0.51859 l -0.116417,0.20814 -0.105833,0.1905 -0.02822,-0.0176 0.123473,-0.21872 v -0.59267 c 0,-0.0388 -0.09525,-0.0882 -0.130528,-0.0882 -0.04233,0 -0.07408,0.0564 -0.123472,0.127 l -0.09172,0.13406 0.02117,0.0176 0.08819,-0.11995 c 0.02822,-0.0388 0.06703,-0.0282 0.06703,0.0106 z m 0.169334,1.4358 v -0.8008 l 0.141111,-0.25047 c 0.134056,-0.23989 0.254,-0.43039 0.504472,-0.43039 0.409223,0 0.709084,0.38805 0.709084,0.91722 0,0.51858 -0.321028,0.79728 -0.702028,0.79728 -0.211667,0 -0.504473,-0.0882 -0.652639,-0.23284 z m 1.841501,-2.14136 v 2.28953 c 0,0.0459 0.123472,0.12347 0.165805,0.12347 0.04233,0 0.07761,-0.06 0.123473,-0.127 l 0.141111,-0.20461 -0.02117,-0.0176 -0.119944,0.16934 c -0.04233,0.06 -0.119945,0.0282 -0.119945,-0.06 v -2.25425 c 0,-0.0388 -0.09525,-0.0882 -0.130528,-0.0882 -0.04233,0 -0.07408,0.0564 -0.123472,0.127 l -0.09172,0.13405 0.02117,0.0176 0.08819,-0.11994 c 0.02822,-0.0388 0.06703,-0.0282 0.06703,0.0106 z m 0.571501,1.47461 c 0,0.54328 0.402167,0.93839 0.9525,0.93839 0.229306,0 0.490362,-0.0564 0.645584,-0.11994 l 0.09525,-0.67733 h -0.02822 l -0.04233,0.26458 c -0.04233,0.25753 -0.264583,0.50447 -0.670278,0.50447 -0.328083,0 -0.5715,-0.16933 -0.694972,-0.45861 l -0.09525,0.06 -0.01764,-0.0247 1.114778,-0.69497 c 0.165806,-0.10231 0.264584,-0.20109 0.264584,-0.31398 0,-0.23989 -0.239889,-0.41628 -0.571501,-0.41628 -0.550333,0 -0.9525,0.39512 -0.9525,0.93839 z m 0.176389,0 c 0,-0.55386 0.303389,-0.91016 0.776111,-0.91016 0.239889,0 0.41275,0.13758 0.41275,0.32808 0,0.19756 -0.151694,0.36689 -0.416278,0.5327 l -0.712611,0.4445 c -0.03881,-0.11642 -0.05997,-0.24695 -0.05997,-0.39512 z m 2.391833,-0.13405 c 0.232834,0.1905 0.437445,0.3563 0.437445,0.59619 0,0.29634 -0.243417,0.44803 -0.479778,0.44803 -0.335139,0 -0.567973,-0.17639 -0.62089,-0.50447 l -0.04233,-0.26458 h -0.02822 l 0.09525,0.67733 c 0.155222,0.0635 0.402167,0.11994 0.560917,0.11994 0.381,0 0.663223,-0.23636 0.663223,-0.55739 0,-0.27163 -0.211667,-0.42686 -0.448028,-0.62794 -0.299862,-0.25047 -0.606779,-0.4445 -0.606779,-0.56092 0,-0.0282 0.0247,-0.0459 0.05292,-0.0459 h 0.440973 c 0.15875,0 0.282222,0.11995 0.313972,0.30692 l 0.02822,0.16228 h 0.03175 l -0.07056,-0.49742 h -0.786695 c -0.112889,0 -0.176389,0.06 -0.176389,0.12347 0,0.16581 0.331611,0.37747 0.635,0.62442 z m 1.001891,1.016 h 0.186972 c 0,-0.16933 0.01058,-0.32808 0.03881,-0.47272 0.172861,-0.89253 0.663222,-1.37937 0.663222,-1.92617 v -0.0706 h -1.245306 l -0.130528,0.6985 h 0.03175 l 0.05644,-0.26811 c 0.05292,-0.25047 0.208139,-0.28222 0.437444,-0.28222 h 0.814917 c -0.0388,0.43039 -0.508,0.96661 -0.751417,1.65806 -0.07408,0.21519 -0.102305,0.4445 -0.102305,0.66322 z m 1.919112,-2.49061 c 0.465667,0 0.744362,0.47977 0.744362,1.11477 0,0.0988 -0.0071,0.19756 -0.01764,0.29634 -0.176389,0.21519 -0.440973,0.35278 -0.670279,0.35278 -0.426861,0 -0.737306,-0.34925 -0.737306,-0.87842 0,-0.48331 0.239889,-0.88547 0.680863,-0.88547 z m -0.871362,0.88194 c 0,0.54328 0.381,0.91722 0.90664,0.91722 0.239889,0 0.500944,-0.127 0.684389,-0.32808 -0.08114,0.53975 -0.345722,1.03717 -0.790223,1.03717 -0.268111,0 -0.515056,-0.19756 -0.613833,-0.62442 l -0.08467,-0.36336 h -0.03175 l 0.179917,0.92075 c 0.109361,0.0388 0.313972,0.10583 0.515056,0.10583 0.624417,0 1.040695,-0.75494 1.040695,-1.43228 0,-0.6985 -0.366889,-1.15005 -0.934862,-1.15005 -0.504473,0 -0.871362,0.39864 -0.871362,0.91722 z"
       id="text22-0"
       style="display:inline;font-size:3.52778px;font-family:Relimuss;-inkscape-font-specification:Relimuss;fill:#cccccc;stroke:#cccccc;stroke-width:0.264583"
       inkscape:label="brand"
       aria-label="vulples79" />
    <path
       d="m 38.778875,3.7677121 0.889626,2.8793695 h -0.834024 l -0.09135,-0.3415528 h -0.869768 l -0.08737,0.3415528 H 36.951964 L 37.84159,3.7677121 Z M 38.473066,5.4993053 38.310233,4.8360574 38.143428,5.4993053 Z m 3.70942,0.5639593 q -0.01588,0.023829 -0.04369,0.059573 -0.0278,0.031773 -0.05957,0.063544 -0.0278,0.031773 -0.05957,0.063544 -0.0278,0.0278 -0.04766,0.043687 -0.218434,0.1866626 -0.480556,0.2819796 -0.262122,0.095317 -0.536158,0.095317 -0.301839,0 -0.599704,-0.1270895 Q 40.057706,6.4167319 39.8353,6.1863823 39.644666,5.9758905 39.545377,5.7217117 q -0.09929,-0.2581505 -0.09929,-0.5202724 0,-0.3018373 0.127089,-0.5838169 0.127089,-0.2859512 0.369353,-0.5004147 0.214464,-0.1866625 0.472614,-0.2819796 0.262122,-0.095317 0.528216,-0.095317 0.313752,0 0.607646,0.1231179 0.297866,0.1231179 0.524244,0.3733252 l -0.627504,0.5480731 q -0.10326,-0.1112033 -0.234321,-0.1628334 -0.131061,-0.055602 -0.266093,-0.055602 -0.238294,0 -0.43687,0.1628333 -0.103261,0.091346 -0.158863,0.2184349 -0.0556,0.1270894 -0.0556,0.2541789 0,0.1151747 0.03971,0.2303495 0.04369,0.1112032 0.131061,0.2025488 0.09929,0.1112032 0.226379,0.1668048 0.127088,0.05163 0.262122,0.05163 0.115174,0 0.230349,-0.039715 0.115174,-0.039715 0.20652,-0.123118 0.0278,-0.019858 0.0556,-0.05163 0.0278,-0.035744 0.03971,-0.055602 z m 0.115181,-2.2955525 h 1.247065 v 0.7387072 h -0.20652 v 1.4019551 h 0.20652 V 6.6470816 H 42.297667 V 5.9083744 h 0.20652 V 4.5064193 h -0.20652 z m 2.239951,0 q 0.297866,0 0.559988,0.1151748 0.262122,0.1112032 0.456727,0.3097804 0.194606,0.1946057 0.305809,0.4567275 0.115175,0.2581505 0.115175,0.5560163 0,0.2978657 -0.115175,0.5599877 -0.111203,0.2621219 -0.305809,0.4606992 -0.194605,0.1946056 -0.456727,0.3097804 -0.262122,0.1112032 -0.559988,0.1112032 H 43.703594 V 3.7677121 Z m 0,2.0374021 q 0.127089,0 0.238292,-0.043687 0.115176,-0.047658 0.198578,-0.1270894 0.0834,-0.083403 0.131061,-0.1946056 0.04766,-0.1112033 0.04766,-0.2382927 0,-0.1270895 -0.04766,-0.2382926 -0.04766,-0.1112036 -0.131061,-0.1906345 -0.0834,-0.083403 -0.198578,-0.131061 -0.111203,-0.047659 -0.238292,-0.047659 z m 6.151926,-0.8777113 v 1.7315933 l -0.782395,-0.00397 v -0.083402 q -0.186663,0.071488 -0.38524,0.091346 -0.198577,0.023829 -0.397154,-0.00795 Q 48.93015,6.6232522 48.743486,6.5398502 48.560795,6.4524759 48.401934,6.3095004 48.175556,6.1109231 48.052438,5.8488012 47.92932,5.5827077 47.909462,5.3046997 47.893572,5.02272 47.984922,4.7486835 q 0.09135,-0.2780081 0.289923,-0.5043861 0.190634,-0.2144634 0.464671,-0.3375812 0.278008,-0.123118 0.579846,-0.1509188 0.305808,-0.0278 0.599703,0.043687 0.297866,0.071488 0.524243,0.2462357 l -0.544101,0.6116178 q -0.142976,-0.087374 -0.297867,-0.1072316 -0.154888,-0.023829 -0.293893,0.00397 -0.139004,0.023829 -0.254179,0.087374 -0.111203,0.059573 -0.166805,0.1429755 -0.07546,0.1072317 -0.115174,0.2303496 -0.03574,0.1231179 -0.03177,0.2462358 0.0039,0.1231178 0.05163,0.2382926 0.05163,0.1112032 0.15489,0.1985772 0.09929,0.091346 0.218435,0.131061 0.123118,0.039715 0.246236,0.031773 0.12709,-0.011914 0.242265,-0.063544 0.119146,-0.055602 0.210491,-0.1588618 l 0.01588,-0.019858 H 49.509991 L 49.656939,4.923431 Z m 2.176404,0.8856545 V 6.6470816 H 50.868262 V 3.7677121 h 1.997686 v 0.8340243 h -1.163662 v 0.2581503 h 0.973029 v 0.6989918 h -0.973029 v 0.2541789 z m 2.30349,-2.0453453 V 6.6470816 H 54.375129 L 53.807198,5.606537 V 6.6470816 H 53.032746 V 3.7677121 h 0.790338 l 0.500415,1.1318901 V 3.7677121 Z M 57.32599,5.8130574 V 6.6470816 H 55.328303 V 3.7677121 h 1.997687 v 0.8340243 h -1.163663 v 0.2581503 h 0.973029 v 0.6989918 h -0.973029 v 0.2541789 z m 2.577528,0.8340242 h -0.897569 q -0.17872,-0.262122 -0.297866,-0.4170121 -0.115174,-0.1588618 -0.190634,-0.2382927 -0.07149,-0.079431 -0.107231,-0.095317 -0.03574,-0.015886 -0.05163,0.00397 -0.01191,0.019858 -0.01191,0.059573 0,0.039715 0,0.067517 v 0.6195618 h -0.83403 V 3.7677121 h 1.092175 q 0.190635,0 0.373326,0.091346 0.186662,0.091346 0.321694,0.2303495 0.158862,0.1588618 0.234321,0.3614105 0.07943,0.2025488 0.07546,0.4130406 -0.0039,0.2104918 -0.09135,0.4170122 -0.0834,0.2025487 -0.242264,0.365382 z M 58.8034,4.8281144 q 0,-0.1151748 -0.07943,-0.1946057 -0.07943,-0.079431 -0.194606,-0.079431 H 58.33873 v 0.5520447 h 0.190634 q 0.115175,0 0.194606,-0.079431 0.07943,-0.083403 0.07943,-0.198577 z m 2.946888,-1.0604023 0.889625,2.8793695 H 61.805889 L 61.71454,6.3055288 h -0.869769 l -0.08737,0.3415528 h -0.834025 l 0.889627,-2.8793695 z m -0.30581,1.7315932 -0.162832,-0.6632479 -0.166805,0.6632479 z m 4.372667,-1.7871948 q 0.309781,0 0.579845,0.1191463 0.274037,0.1151748 0.476586,0.3177235 0.202549,0.2025487 0.317723,0.4765853 0.119146,0.270065 0.119146,0.5798455 0,0.3097804 -0.119146,0.583817 -0.115174,0.2700649 -0.317723,0.4726137 -0.202549,0.2025487 -0.476586,0.321695 -0.270064,0.1151749 -0.579845,0.1151749 -0.30978,0 -0.583817,-0.1151749 Q 64.963263,6.4643905 64.760715,6.2618418 64.558166,6.059293 64.439019,5.7892281 64.323844,5.5151915 64.323844,5.2054111 q 0,-0.3097805 0.115175,-0.5798455 0.119147,-0.2740366 0.321696,-0.4765853 0.202548,-0.2025487 0.472613,-0.3177235 0.274037,-0.1191463 0.583817,-0.1191463 z m 0.639418,1.489329 q 0,-0.1310609 -0.05163,-0.2462358 -0.04766,-0.1151747 -0.131061,-0.1985772 -0.0834,-0.083402 -0.198577,-0.1310609 -0.115175,-0.05163 -0.246236,-0.05163 -0.131061,0 -0.246236,0.05163 -0.115175,0.047658 -0.202549,0.1310609 -0.0834,0.083402 -0.135032,0.1985772 -0.04766,0.1151749 -0.04766,0.2462358 0,0.131061 0.04766,0.2462357 0.05163,0.1151749 0.135032,0.2025488 0.08737,0.083403 0.202549,0.1350324 0.115175,0.047658 0.246236,0.047658 0.131061,0 0.246236,-0.047658 0.115174,-0.05163 0.198577,-0.1350324 0.0834,-0.087374 0.131061,-0.2025488 0.05163,-0.1151747 0.05163,-0.2462357 z M 63.664568,4.6017364 v 1.0564307 q 0,0.079431 0.0278,0.1429756 0.0278,0.059573 0.07546,0.1032601 0.04766,0.039715 0.107232,0.063544 0.06354,0.019858 0.127089,0.019858 0.07149,0 0.142975,-0.011915 0.07546,-0.011915 0.15489,-0.083403 l 0.552044,0.6433901 q -0.158861,0.1787194 -0.357439,0.2343211 -0.198577,0.059573 -0.405097,0.059573 -0.218435,0 -0.432898,-0.079431 Q 63.442155,6.6748822 63.263435,6.5398495 63.088695,6.4008459 62.969548,6.2181548 62.854373,6.0314923 62.826573,5.8170289 V 4.6017364 H 62.250698 V 3.7677121 H 64.23647 V 4.6017364 Z M 69.84032,6.6470816 H 68.942751 Q 68.764032,6.3849596 68.644886,6.2300695 68.52971,6.0712077 68.454251,5.9917768 q -0.07149,-0.079431 -0.107232,-0.095317 -0.03574,-0.015886 -0.05163,0.00397 -0.01191,0.019858 -0.01191,0.059573 0,0.039715 0,0.067517 V 6.6470789 H 67.449453 V 3.7677121 h 1.092174 q 0.190635,0 0.373326,0.091346 0.186663,0.091346 0.321695,0.2303495 0.158862,0.1588618 0.234321,0.3614105 0.07943,0.2025488 0.07546,0.4130406 -0.0039,0.2104918 -0.09135,0.4170122 -0.0834,0.2025487 -0.242264,0.365382 z M 68.740202,4.8281144 q 0,-0.1151748 -0.07943,-0.1946057 -0.07943,-0.079431 -0.194605,-0.079431 h -0.190634 v 0.5520447 h 0.190634 q 0.115174,0 0.194605,-0.079431 0.07943,-0.083403 0.07943,-0.198577 z"
       id="text1"
       style="font-size:4.23333px;font-family:QUARTZO;-inkscape-font-specification:QUARTZO;text-align:center;text-anchor:middle;fill:none;stroke:#000000;stroke-width:0.248221"
       inkscape:label="Title"
       aria-label="ACID GENERATOR" />
  </g>
  <!-- ============================================================ -->
  <!-- WIDGET GUIDES (toggle visibility in Inkscape) -->
  <!-- All positions match C++ widget placement in mm -->
  <!-- ============================================================ -->
</svg>
